SplineFontDB: 3.0
FontName: Nobile
FullName: Nobile
FamilyName: Nobile
Weight: Regular
Copyright: Copyright (c) 2007-2012 by vernon adams. All rights reserved.
Version: 2.0
ItalicAngle: 0
UnderlinePosition: -352
UnderlineWidth: 40
Ascent: 1638
Descent: 410
UFOAscent: 1638
UFODescent: -410
LayerCount: 2
Layer: 0 0 "Back"  1
Layer: 1 0 "Fore"  0
NeedsXUIDChange: 1
FSType: 0
OS2Version: 0
OS2_WeightWidthSlopeOnly: 0
OS2_UseTypoMetrics: 0
CreationTime: 1333616983
ModificationTime: 1333621024
PfmFamily: 0
TTFWeight: 400
TTFWidth: 5
LineGap: 0
VLineGap: 0
Panose: 2 0 3 3 0 0 0 0 0 0
OS2TypoAscent: 1638
OS2TypoAOffset: 0
OS2TypoDescent: -410
OS2TypoDOffset: 0
OS2TypoLinegap: 0
OS2WinAscent: 2376
OS2WinAOffset: 0
OS2WinDescent: 673
OS2WinDOffset: 0
HheadAscent: 0
HheadAOffset: 1
HheadDescent: 0
HheadDOffset: 1
OS2SubXSize: 1331
OS2SubYSize: 1433
OS2SubXOff: 0
OS2SubYOff: 286
OS2SupXSize: 1331
OS2SupYSize: 1433
OS2SupXOff: 0
OS2SupYOff: 983
OS2StrikeYSize: 102
OS2StrikeYPos: 530
OS2Vendor: 'newt'
OS2CodePages: 00000001.00000000
OS2UnicodeRanges: 00000087.0000000e.00000000.00000000
Lookup: 4 0 1 "'liga' Standard Ligatures lookup 0"  {"'liga' Standard Ligatures lookup 0-1"  } ['liga' ('DFLT' <'dflt' > 'latn' <'dflt' > ) ]
Lookup: 258 0 0 "'kern' Horizontal Kerning in Latin lookup 0"  {"'kern' Horizontal Kerning in Latin lookup 0 subtable"  "'kern' Horizontal Kerning lookup 1 kerning class 1" [307,0,0] } ['kern' ('DFLT' <'dflt' > 'latn' <'dflt' > ) ]
MarkAttachClasses: 1
DEI: 91125
KernClass2: 29 27 "'kern' Horizontal Kerning lookup 1 kerning class 1" 
 81 A Aacute Abreve Acircumflex Adieresis Agrave Amacron Aogonek Aring Atilde uni0202
 1 B
 75 D Eth O Oacute Ocircumflex Odieresis Ograve Oslash Otilde Q uni020C uni020E
 1 F
 1 K
 1 L
 1 P
 44 R Racute Rcaron Rcommaaccent uni0210 uni0212
 22 T Tcommaaccent uni021A
 1 V
 1 W
 18 Y Yacute Ydieresis
 1 a
 69 b o oacute ocircumflex odieresis ograve oslash otilde p thorn uni020F
 1 c
 1 e
 4 f ff
 1 g
 24 h hbar m n nacute ntilde

StartChar: .notdef
Encoding: 390 -1 0
Width: 772
VWidth: 0
Flags: HW
LayerCount: 2
Fore
SplineSet
184 68 m 1
 592 68 l 1
 592 1297 l 1
 184 1297 l 1
 184 68 l 1
116 0 m 1
 116 1365 l 1
 660 1365 l 1
 660 0 l 1
 116 0 l 1
EndSplineSet
EndChar

StartChar: A
Encoding: 34 65 1
Width: 1400
VWidth: 0
Flags: HW
LayerCount: 2
Fore
SplineSet
1050 383 m 1
 350 383 l 1
 227 0 l 1
 34 0 l 1
 550 1579 l 1
 850 1579 l 1
 1366 0 l 1
 1173 0 l 1
 1050 383 l 1
1017 485 m 1
 700 1460 l 1
 383 485 l 1
 1017 485 l 1
EndSplineSet
EndChar

StartChar: AE
Encoding: 132 198 2
Width: 1805
VWidth: 0
Flags: HW
LayerCount: 2
Fore
SplineSet
928 1459 m 1
 438 493 l 1
 928 493 l 1
 928 1459 l 1
1769 0 m 1
 930 0 l 1
 930 371 l 1
 378 371 l 1
 186 0 l 1
 -23 0 l 1
 803 1579 l 1
 1741 1579 l 1
 1741 1436 l 1
 1093 1436 l 1
 1093 891 l 1
 1698 891 l 1
 1698 764 l 1
 1095 764 l 1
 1095 143 l 1
 1769 143 l 1
 1769 0 l 1
EndSplineSet
EndChar

StartChar: B
Encoding: 35 66 12
Width: 1340
VWidth: 0
Flags: HW
LayerCount: 2
Fore
SplineSet
853 862 m 1
 1109 833 1260 699 1260 434 c 0
 1260 46 861 0 560 0 c 2
 140 0 l 1
 140 1579 l 1
 501 1579 l 2
 800 1579 1178 1570 1178 1188 c 0
 1178 976 1055 892 853 862 c 1
560 143 m 2
 809 143 1078 152 1078 466 c 0
 1078 759 835 786 597 786 c 2
 334 786 l 1
 334 143 l 1
 560 143 l 2
1013 1188 m 0
 1013 1450 695 1436 505 1436 c 2
 334 1436 l 1
 334 915 l 1
 593 915 l 2
 800 915 1013 935 1013 1188 c 0
EndSplineSet
EndChar

StartChar: C
Encoding: 36 67 13
Width: 1312
VWidth: 0
Flags: HW
LayerCount: 2
Fore
SplineSet
794 1458 m 0
 390 1458 315 1119 315 784 c 0
 315 446 394 111 794 111 c 0
 925 111 1049 171 1168 218 c 1
 1224 79 l 1
 1074 18 942 -41 774 -41 c 0
 270 -41 114 348 114 788 c 0
 114 1252 291 1610 794 1610 c 0
 955 1610 1046 1574 1196 1530 c 1
 1151 1385 l 1
 1031 1430 924 1458 794 1458 c 0
EndSplineSet
EndChar

StartChar: D
Encoding: 37 68 19
Width: 1488
VWidth: 0
Flags: HW
LayerCount: 2
Fore
SplineSet
715 1579 m 2
 1212 1579 1374 1238 1374 788 c 0
 1374 338 1211 0 715 0 c 2
 140 0 l 1
 140 1579 l 1
 715 1579 l 2
715 1436 m 2
 334 1436 l 1
 334 143 l 1
 715 143 l 2
 1108 143 1173 465 1173 789 c 0
 1173 1111 1104 1436 715 1436 c 2
EndSplineSet
EndChar

StartChar: Dcroat
Encoding: 206 272 21
Width: 1448
VWidth: 0
Flags: HW
LayerCount: 2
Fore
SplineSet
600 764 m 1
 366 764 l 1
 366 143 l 1
 725 143 l 2
 1118 143 1183 465 1183 789 c 0
 1183 1111 1114 1436 725 1436 c 2
 366 1436 l 1
 366 895 l 1
 600 895 l 1
 600 764 l 1
725 1579 m 2
 1218 1579 1384 1231 1384 788 c 0
 1384 338 1221 0 725 0 c 2
 172 0 l 1
 172 764 l 1
 10 764 l 1
 10 895 l 1
 172 895 l 1
 172 1579 l 1
 725 1579 l 2
EndSplineSet
EndChar

StartChar: E
Encoding: 38 69 22
Width: 1163
VWidth: 0
Flags: HW
LayerCount: 2
Fore
SplineSet
1123 0 m 1
 140 0 l 1
 140 1579 l 1
 1110 1579 l 1
 1110 1436 l 1
 334 1436 l 1
 334 891 l 1
 1012 891 l 1
 1012 776 l 1
 334 776 l 1
 334 143 l 1
 1123 143 l 1
 1123 0 l 1
EndSplineSet
EndChar

StartChar: Eth
Encoding: 142 208 31
Width: 1448
VWidth: 0
Flags: HW
LayerCount: 2
Fore
SplineSet
600 764 m 1
 366 764 l 1
 366 143 l 1
 725 143 l 2
 1118 143 1183 465 1183 789 c 0
 1183 1111 1114 1436 725 1436 c 2
 366 1436 l 1
 366 895 l 1
 600 895 l 1
 600 764 l 1
725 1579 m 2
 1218 1579 1384 1231 1384 788 c 0
 1384 338 1221 0 725 0 c 2
 172 0 l 1
 172 764 l 1
 10 764 l 1
 10 895 l 1
 172 895 l 1
 172 1579 l 1
 725 1579 l 2
EndSplineSet
EndChar

StartChar: Euro
Encoding: 373 8364 32
Width: 953
VWidth: 0
Flags: HW
LayerCount: 2
Fore
SplineSet
678 1439 m 0
 777 1439 894 1422 983 1376 c 1
 940 1254 l 1
 859 1288 763 1308 675 1308 c 0
 440 1308 339 1152 339 931 c 1
 733 931 l 1
 733 809 l 1
 328 809 l 1
 323 772 324 733 323 696 c 1
 676 696 l 1
 676 574 l 1
 322 574 l 1
 322 369 388 102 641 102 c 0
 733 102 846 130 926 178 c 1
 978 55 l 1
 887 -13 716 -38 608 -38 c 0
 294 -38 163 312 153 574 c 1
 -11 574 l 1
 -11 696 l 1
 149 696 l 1
 153 809 l 1
 -27 809 l 1
 -27 931 l 1
 177 931 l 1
 196 1238 357 1439 678 1439 c 0
EndSplineSet
EndChar

StartChar: F
Encoding: 39 70 33
Width: 1105
VWidth: 0
Flags: HW
LayerCount: 2
Fore
SplineSet
336 762 m 1
 336 0 l 1
 140 0 l 1
 140 1579 l 1
 1061 1579 l 1
 1061 1436 l 1
 336 1436 l 1
 336 879 l 1
 1000 879 l 1
 1000 762 l 1
 336 762 l 1
EndSplineSet
EndChar

StartChar: G
Encoding: 40 71 34
Width: 1458
VWidth: 0
Flags: HW
LayerCount: 2
Fore
SplineSet
745 -41 m 0
 284 -41 114 388 114 786 c 0
 114 1243 289 1610 788 1610 c 0
 952 1610 1094 1562 1230 1476 c 1
 1164 1341 l 1
 1070 1420 905 1458 786 1458 c 0
 383 1458 315 1112 315 782 c 0
 315 449 387 111 792 111 c 0
 978 111 1168 183 1168 399 c 2
 1168 684 l 1
 766 684 l 1
 766 811 l 1
 1353 811 l 1
 1353 0 l 1
 1265 0 l 1
 1212 213 l 1
 1162 10 925 -41 745 -41 c 0
EndSplineSet
EndChar

StartChar: H
Encoding: 41 72 39
Width: 1500
VWidth: 0
Flags: HW
LayerCount: 2
Fore
SplineSet
1166 0 m 1
 1166 764 l 1
 334 764 l 1
 334 0 l 1
 140 0 l 1
 140 1579 l 1
 334 1579 l 1
 334 879 l 1
 1166 879 l 1
 1166 1579 l 1
 1360 1579 l 1
 1360 0 l 1
 1166 0 l 1
EndSplineSet
EndChar

StartChar: Hbar
Encoding: 226 294 40
Width: 1467
VWidth: 0
Flags: HW
LayerCount: 2
Fore
SplineSet
1149 0 m 1
 1149 764 l 1
 317 764 l 1
 317 0 l 1
 123 0 l 1
 123 1579 l 1
 317 1579 l 1
 317 879 l 1
 1149 879 l 1
 1149 1579 l 1
 1343 1579 l 1
 1343 0 l 1
 1149 0 l 1
EndSplineSet
EndChar

StartChar: I
Encoding: 42 73 42
Width: 779
VWidth: 0
Flags: HW
LayerCount: 2
Fore
SplineSet
76 112 m 1
 280 112 l 1
 280 1461 l 1
 76 1461 l 1
 76 1579 l 1
 669 1579 l 1
 669 1461 l 1
 463 1461 l 1
 463 112 l 1
 669 112 l 1
 669 0 l 1
 76 0 l 1
 76 112 l 1
EndSplineSet
EndChar

StartChar: IJ
Encoding: 238 306 43
Width: 1494
VWidth: 0
Flags: HW
LayerCount: 2
Fore
SplineSet
887 -90 m 1
 840 37 l 1
 1148 83 1162 203 1162 479 c 2
 1162 1579 l 1
 1354 1579 l 1
 1354 514 l 2
 1354 168 1295 -90 887 -90 c 1
76 112 m 1
 280 112 l 1
 280 1461 l 1
 76 1461 l 1
 76 1579 l 1
 669 1579 l 1
 669 1461 l 1
 463 1461 l 1
 463 112 l 1
 669 112 l 1
 669 0 l 1
 76 0 l 1
 76 112 l 1
EndSplineSet
EndChar

StartChar: J
Encoding: 43 74 53
Width: 715
VWidth: 0
Flags: HW
LayerCount: 2
Fore
SplineSet
108 -90 m 1
 61 37 l 1
 369 83 383 203 383 479 c 2
 383 1579 l 1
 575 1579 l 1
 575 514 l 2
 575 168 516 -90 108 -90 c 1
EndSplineSet
EndChar

StartChar: K
Encoding: 44 75 55
Width: 1339
VWidth: 0
Flags: HW
LayerCount: 2
Fore
SplineSet
334 747 m 1
 334 0 l 1
 140 0 l 1
 140 1579 l 1
 334 1579 l 1
 334 857 l 1
 557 857 l 1
 1029 1579 l 1
 1240 1579 l 1
 732 805 l 1
 1307 0 l 1
 1084 0 l 1
 567 747 l 1
 334 747 l 1
EndSplineSet
EndChar

StartChar: L
Encoding: 45 76 57
Width: 1131
VWidth: 0
Flags: HW
LayerCount: 2
Fore
SplineSet
1080 0 m 1
 140 0 l 1
 140 1579 l 1
 334 1579 l 1
 334 143 l 1
 1080 143 l 1
 1080 0 l 1
EndSplineSet
EndChar

StartChar: Lslash
Encoding: 253 321 62
Width: 1175
VWidth: 0
Flags: HW
LayerCount: 2
Fore
SplineSet
1063 0 m 1
 123 0 l 1
 123 1579 l 1
 317 1579 l 1
 317 143 l 1
 1063 143 l 1
 1063 0 l 1
EndSplineSet
EndChar

StartChar: M
Encoding: 46 77 63
Width: 1812
VWidth: 0
Flags: HW
LayerCount: 2
Fore
SplineSet
818 112 m 1
 314 1399 l 1
 314 0 l 1
 140 0 l 1
 140 1579 l 1
 421 1579 l 1
 906 320 l 1
 1391 1579 l 1
 1672 1579 l 1
 1672 0 l 1
 1499 0 l 1
 1499 1399 l 1
 984 112 l 1
 818 112 l 1
EndSplineSet
EndChar

StartChar: N
Encoding: 47 78 64
Width: 1533
VWidth: 0
Flags: HW
LayerCount: 2
Fore
SplineSet
1221 175 m 1
 1221 1579 l 1
 1393 1579 l 1
 1393 0 l 1
 1131 0 l 1
 312 1404 l 1
 312 0 l 1
 140 0 l 1
 140 1579 l 1
 402 1579 l 1
 1221 175 l 1
EndSplineSet
EndChar

StartChar: O
Encoding: 48 79 69
Width: 1538
VWidth: 0
Flags: HW
LayerCount: 2
Fore
SplineSet
1224 784 m 0
 1224 1103 1160 1458 770 1458 c 0
 377 1458 314 1101 314 784 c 0
 314 458 385 111 779 111 c 0
 1160 111 1224 480 1224 784 c 0
1424 784 m 0
 1424 344 1270 -41 768 -41 c 0
 270 -41 114 335 114 784 c 0
 114 1214 269 1610 754 1610 c 0
 1265 1610 1424 1236 1424 784 c 0
EndSplineSet
EndChar

StartChar: OE
Encoding: 267 338 70
Width: 2247
VWidth: 0
Flags: HW
PickledData: "(dp1
S'com.typemytype.robofont.layerData'
p2
(dp3
s."
LayerCount: 2
Fore
SplineSet
1224 0 m 1
 1224 149 l 1
 1130 31 985 -41 768 -41 c 0
 270 -41 114 335 114 784 c 0
 114 1214 269 1610 754 1610 c 0
 979 1610 1128 1538 1224 1418 c 1
 1224 1579 l 1
 2194 1579 l 1
 2194 1436 l 1
 1418 1436 l 1
 1418 891 l 1
 2096 891 l 1
 2096 776 l 1
 1418 776 l 1
 1418 143 l 1
 2207 143 l 1
 2207 0 l 1
 1224 0 l 1
779 111 m 0
 1160 111 1224 480 1224 784 c 0
 1224 1103 1160 1458 770 1458 c 0
 377 1458 314 1101 314 784 c 0
 314 458 385 111 779 111 c 0
EndSplineSet
EndChar

StartChar: Oslash
Encoding: 150 216 78
Width: 1431
VWidth: 0
Flags: HW
LayerCount: 2
Fore
SplineSet
1164 784 m 0
 1164 953 1146 1167 1043 1307 c 1
 519 147 l 1
 521 147 l 1
 581 121 645 111 710 111 c 0
 1100 111 1164 470 1164 784 c 0
710 1458 m 0
 318 1458 255 1101 255 784 c 0
 255 592 277 348 426 209 c 1
 960 1390 l 1
 887 1439 797 1458 710 1458 c 0
1365 784 m 0
 1365 345 1210 -41 709 -41 c 0
 622 -41 535 -30 453 0 c 1
 381 -159 l 1
 280 -113 l 1
 353 49 l 1
 104 215 54 503 54 784 c 0
 54 1214 210 1610 695 1610 c 0
 809 1610 925 1592 1027 1538 c 1
 1105 1710 l 1
 1206 1668 l 1
 1120 1477 l 1
 1319 1317 1365 1024 1365 784 c 0
EndSplineSet
EndChar

StartChar: P
Encoding: 49 80 80
Width: 1306
VWidth: 0
Flags: HW
LayerCount: 2
Fore
SplineSet
1237 1108 m 0
 1237 612 693 639 334 639 c 1
 334 0 l 1
 140 0 l 1
 140 1579 l 1
 537 1579 l 2
 891 1579 1237 1536 1237 1108 c 0
504 784 m 2
 725 784 1055 790 1055 1084 c 0
 1055 1422 848 1436 549 1436 c 2
 334 1436 l 1
 334 784 l 1
 504 784 l 2
EndSplineSet
EndChar

StartChar: Q
Encoding: 50 81 81
Width: 1555
VWidth: 0
Flags: HW
LayerCount: 2
Fore
SplineSet
1441 784 m 0
 1441 414 1329 37 913 -29 c 1
 1292 -293 l 1
 1173 -424 l 1
 680 -35 l 1
 235 15 114 399 114 792 c 0
 114 1228 287 1610 778 1610 c 0
 1272 1610 1441 1230 1441 784 c 0
778 1458 m 0
 385 1458 315 1103 315 784 c 0
 315 466 387 111 778 111 c 0
 1171 111 1241 465 1241 784 c 0
 1241 1101 1168 1458 778 1458 c 0
EndSplineSet
EndChar

StartChar: R
Encoding: 51 82 82
Width: 1357
VWidth: 0
Flags: HW
LayerCount: 2
Fore
SplineSet
334 862 m 1
 575 862 l 2
 775 862 1063 885 1063 1150 c 0
 1063 1465 749 1436 516 1436 c 2
 334 1436 l 1
 334 862 l 1
820 797 m 1
 1070 770 1231 668 1231 397 c 2
 1231 0 l 1
 1049 0 l 1
 1049 545 1138 733 514 733 c 2
 334 733 l 1
 334 0 l 1
 140 0 l 1
 140 1579 l 1
 516 1579 l 2
 830 1579 1233 1579 1233 1160 c 0
 1233 926 1038 797 820 797 c 1
EndSplineSet
EndChar

StartChar: S
Encoding: 52 83 86
Width: 1269
VWidth: 0
Flags: HW
LayerCount: 2
Fore
SplineSet
159 72 m 1
 179 222 l 1
 322 147 424 111 589 111 c 0
 801 111 1000 166 1000 416 c 0
 1000 866 90 654 90 1217 c 0
 90 1494 347 1610 589 1610 c 0
 761 1610 932 1569 1082 1484 c 1
 1052 1337 l 1
 939 1409 785 1458 651 1458 c 0
 470 1458 273 1429 273 1208 c 0
 273 820 1184 1050 1184 426 c 0
 1184 91 927 -41 621 -41 c 0
 477 -41 282 -5 159 72 c 1
EndSplineSet
EndChar

StartChar: T
Encoding: 53 84 91
Width: 1146
VWidth: 0
Flags: HW
LayerCount: 2
Fore
SplineSet
1127 1436 m 1
 669 1436 l 1
 669 0 l 1
 479 0 l 1
 479 1436 l 1
 19 1436 l 1
 19 1579 l 1
 1127 1579 l 1
 1127 1436 l 1
EndSplineSet
EndChar

StartChar: Thorn
Encoding: 156 222 94
Width: 1254
VWidth: 0
Flags: HW
LayerCount: 2
Fore
SplineSet
479 649 m 2
 713 649 1030 655 1030 959 c 0
 1030 1289 807 1300 526 1300 c 2
 317 1300 l 1
 317 649 l 1
 479 649 l 2
1212 973 m 0
 1212 481 674 504 317 504 c 1
 317 0 l 1
 123 0 l 1
 123 1579 l 1
 317 1579 l 1
 317 1444 l 1
 700 1444 1212 1491 1212 973 c 0
EndSplineSet
EndChar

StartChar: U
Encoding: 54 85 95
Width: 1492
VWidth: 0
Flags: HW
LayerCount: 2
Fore
SplineSet
1363 715 m 2
 1363 259 1235 -41 745 -41 c 0
 259 -41 129 258 129 715 c 2
 129 1579 l 1
 321 1579 l 1
 321 711 l 2
 321 373 356 100 745 100 c 0
 1136 100 1167 375 1167 711 c 2
 1167 1579 l 1
 1363 1579 l 1
 1363 715 l 2
EndSplineSet
EndChar

StartChar: V
Encoding: 55 86 106
Width: 1348
VWidth: 0
Flags: HW
LayerCount: 2
Fore
SplineSet
553 0 m 1
 57 1579 l 1
 241 1579 l 1
 675 180 l 1
 1109 1579 l 1
 1291 1579 l 1
 797 0 l 1
 553 0 l 1
EndSplineSet
EndChar

StartChar: W
Encoding: 56 87 107
Width: 2011
VWidth: 0
Flags: HW
LayerCount: 2
Fore
SplineSet
1150 1489 m 1
 1452 175 l 1
 1802 1579 l 1
 1982 1579 l 1
 1586 0 l 1
 1320 0 l 1
 1013 1333 l 1
 692 0 l 1
 425 0 l 1
 29 1579 l 1
 210 1579 l 1
 560 175 l 1
 876 1489 l 1
 1150 1489 l 1
EndSplineSet
EndChar

StartChar: X
Encoding: 57 88 108
Width: 1354
VWidth: 0
Flags: HW
LayerCount: 2
Fore
SplineSet
289 0 m 1
 71 0 l 1
 568 800 l 1
 73 1579 l 1
 269 1579 l 1
 677 947 l 1
 1085 1579 l 1
 1281 1579 l 1
 786 800 l 1
 1283 0 l 1
 1065 0 l 1
 677 650 l 1
 547 434 418 217 289 0 c 1
EndSplineSet
EndChar

StartChar: Y
Encoding: 58 89 109
Width: 1316
VWidth: 0
Flags: HW
LayerCount: 2
Fore
SplineSet
658 748 m 1
 1076 1579 l 1
 1267 1579 l 1
 753 557 l 1
 753 0 l 1
 563 0 l 1
 563 557 l 1
 49 1579 l 1
 246 1579 l 1
 381 1301 518 1024 658 748 c 1
EndSplineSet
EndChar

StartChar: Z
Encoding: 59 90 112
Width: 1252
VWidth: 0
Flags: HW
LayerCount: 2
Fore
SplineSet
1141 1579 m 1
 1141 1419 l 1
 308 143 l 1
 1143 143 l 1
 1143 0 l 1
 111 0 l 1
 111 180 l 1
 940 1447 l 1
 111 1447 l 1
 111 1579 l 1
 1141 1579 l 1
EndSplineSet
EndChar

StartChar: a
Encoding: 66 97 116
Width: 1189
VWidth: 0
Flags: HW
LayerCount: 2
Fore
SplineSet
877 665 m 1
 877 713 l 2
 877 925 849 1047 605 1047 c 0
 487 1047 342 999 242 935 c 1
 175 1057 l 1
 308 1132 438 1190 595 1190 c 0
 966 1190 1067 1043 1067 686 c 2
 1067 0 l 1
 927 0 l 1
 899 178 l 1
 801 44 661 -20 494 -20 c 0
 255 -20 102 97 102 343 c 0
 102 603 310 715 546 715 c 0
 632 715 796 694 877 665 c 1
541 117 m 0
 670 117 785 185 877 271 c 1
 877 569 l 1
 790 583 703 590 615 590 c 0
 443 590 293 556 293 356 c 0
 293 182 373 117 541 117 c 0
EndSplineSet
EndChar

StartChar: acute
Encoding: 115 180 120
Width: 430
VWidth: 0
Flags: HW
LayerCount: 2
Fore
SplineSet
96 328 m 1
 39 354 l 1
 349 860 l 1
 510 759 l 1
 96 328 l 1
EndSplineSet
EndChar

StartChar: ae
Encoding: 164 230 122
Width: 1802
VWidth: 0
Flags: HW
LayerCount: 2
Fore
SplineSet
1576 717 m 2
 1576 902 1506 1057 1302 1057 c 0
 1075 1057 976 896 976 682 c 1
 1576 682 l 1
 1576 717 l 2
477 119 m 0
 596 119 702 193 786 271 c 1
 786 569 l 1
 708 582 630 590 551 590 c 0
 379 590 229 556 229 356 c 0
 229 183 309 119 477 119 c 0
786 665 m 1
 786 713 l 2
 786 924 775 1047 534 1047 c 0
 424 1047 261 1001 171 935 c 1
 104 1057 l 1
 196 1135 405 1190 524 1190 c 0
 697 1190 851 1154 906 970 c 1
 979 1121 1140 1190 1301 1190 c 0
 1608 1190 1744 958 1744 676 c 0
 1744 640 1741 603 1736 567 c 1
 976 567 l 1
 976 322 1041 127 1322 127 c 0
 1436 127 1542 170 1628 244 c 1
 1690 99 l 1
 1596 30 1427 -23 1310 -23 c 0
 1129 -23 969 45 877 207 c 1
 773 68 604 -23 430 -23 c 0
 191 -23 38 95 38 343 c 0
 38 603 246 715 482 715 c 0
 568 715 706 698 786 665 c 1
EndSplineSet
EndChar

StartChar: ampersand
Encoding: 7 38 125
Width: 1536
VWidth: 0
Flags: HW
LayerCount: 2
Fore
SplineSet
836 1119 m 0
 836 1258 718 1310 595 1310 c 0
 465 1310 362 1269 362 1121 c 0
 362 1026 467 925 547 883 c 1
 679 922 836 953 836 1119 c 0
246 418 m 0
 246 161 398 100 631 100 c 0
 777 100 992 118 1080 256 c 1
 492 726 l 1
 328 691 246 585 246 418 c 0
631 -39 m 0
 353 -39 64 75 64 396 c 0
 64 621 184 761 398 822 c 1
 307 879 196 1001 196 1113 c 0
 196 1345 386 1445 595 1445 c 0
 803 1445 996 1346 996 1115 c 0
 996 899 813 836 637 781 c 1
 1132 391 l 1
 1141 526 1146 661 1146 796 c 1
 1310 796 l 1
 1310 624 1296 446 1263 277 c 1
 1489 95 l 1
 1403 -7 l 1
 1192 170 l 1
 1105 6 797 -39 631 -39 c 0
EndSplineSet
EndChar

StartChar: approxequal
Encoding: 377 8776 127
Width: 972
VWidth: 0
Flags: HW
LayerCount: 2
Fore
SplineSet
675 390 m 0
 529 390 397 509 322 509 c 0
 264 509 263 436 263 394 c 1
 107 394 l 1
 107 531 151 654 308 654 c 0
 453 654 550 529 652 529 c 0
 706 529 711 601 711 640 c 1
 867 640 l 1
 867 521 812 390 675 390 c 0
EndSplineSet
EndChar

StartChar: asciicircum
Encoding: 63 94 129
Width: 877
VWidth: 0
Flags: HW
LayerCount: 2
Fore
SplineSet
438 809 m 1
 226 432 l 1
 98 510 l 1
 390 1011 l 1
 486 1011 l 1
 778 510 l 1
 650 432 l 1
 438 809 l 1
EndSplineSet
EndChar

StartChar: asciitilde
Encoding: 95 126 130
Width: 972
VWidth: 0
Flags: HW
LayerCount: 2
Fore
SplineSet
675 390 m 0
 529 390 397 509 322 509 c 0
 264 509 263 436 263 394 c 1
 107 394 l 1
 107 531 151 654 308 654 c 0
 453 654 550 529 652 529 c 0
 706 529 711 601 711 640 c 1
 867 640 l 1
 867 521 812 390 675 390 c 0
EndSplineSet
EndChar

StartChar: asterisk
Encoding: 11 42 131
Width: 1017
VWidth: 0
Flags: HW
LayerCount: 2
Fore
SplineSet
508 1292 m 1
 647 1567 l 1
 750 1509 l 1
 592 1237 l 1
 903 1237 l 1
 903 1145 l 1
 594 1145 l 1
 764 872 l 1
 662 815 l 1
 508 1090 l 1
 354 815 l 1
 252 872 l 1
 422 1145 l 1
 113 1145 l 1
 113 1237 l 1
 424 1237 l 1
 266 1509 l 1
 369 1567 l 1
 508 1292 l 1
EndSplineSet
EndChar

StartChar: at
Encoding: 33 64 132
Width: 1873
VWidth: 0
Flags: HW
LayerCount: 2
Fore
SplineSet
1440 134 m 1
 1531 42 l 1
 1395 -109 1136 -155 943 -155 c 0
 475 -155 108 78 108 578 c 0
 108 1072 459 1456 960 1456 c 0
 1396 1456 1769 1230 1769 756 c 0
 1769 490 1630 199 1328 199 c 0
 1179 199 1228 448 1228 548 c 1
 1186 343 1025 199 812 199 c 0
 574 199 448 361 448 590 c 0
 448 886 728 1128 1015 1128 c 0
 1108 1128 1208 1111 1300 1096 c 1
 1355 987 l 1
 1355 317 l 1
 1585 315 1609 585 1609 758 c 0
 1609 1158 1331 1317 966 1317 c 0
 527 1317 267 1004 267 578 c 0
 267 159 565 -16 953 -16 c 0
 1138 -16 1295 20 1440 134 c 1
1207 987 m 1
 1150 999 1090 1008 1031 1008 c 0
 788 1008 603 814 603 573 c 0
 603 422 670 330 828 330 c 0
 1168 330 1205 734 1207 987 c 1
EndSplineSet
EndChar

StartChar: b
Encoding: 67 98 134
Width: 1242
VWidth: 0
Flags: HW
LayerCount: 2
Fore
SplineSet
958 584 m 0
 958 779 921 1047 671 1047 c 0
 555 1047 400 982 316 902 c 1
 316 273 l 1
 413 177 536 117 671 117 c 0
 918 117 958 390 958 584 c 0
664 -20 m 0
 517 -20 386 70 294 178 c 1
 266 0 l 1
 126 0 l 1
 126 1579 l 1
 316 1614 l 1
 316 1030 l 1
 401 1115 549 1190 670 1190 c 0
 1016 1190 1140 881 1140 580 c 0
 1140 277 1009 -20 664 -20 c 0
EndSplineSet
EndChar

StartChar: backslash
Encoding: 61 92 135
Width: 714
VWidth: 0
Flags: HW
LayerCount: 2
Fore
SplineSet
125 1731 m 1
 748 -114 l 1
 588 -172 l 1
 -33 1679 l 1
 125 1731 l 1
EndSplineSet
EndChar

StartChar: bar
Encoding: 93 124 136
Width: 436
VWidth: 0
Flags: HW
LayerCount: 2
Fore
SplineSet
129 -111 m 1
 129 1696 l 1
 307 1696 l 1
 307 -111 l 1
 129 -111 l 1
EndSplineSet
EndChar

StartChar: braceleft
Encoding: 92 123 137
Width: 766
VWidth: 0
Flags: HW
LayerCount: 2
Fore
SplineSet
57 571 m 1
 57 759 l 1
 518 758 37 1540 704 1539 c 1
 705 1370 l 1
 249 1373 677 783 224 665 c 1
 677 547 249 -43 705 -40 c 1
 704 -209 l 1
 37 -210 518 572 57 571 c 1
EndSplineSet
EndChar

StartChar: braceright
Encoding: 94 125 138
Width: 766
VWidth: 0
Flags: HW
LayerCount: 2
Fore
SplineSet
710 571 m 1
 250 572 729 -210 63 -209 c 1
 62 -40 l 1
 518 -43 90 547 543 665 c 1
 91 783 517 1373 62 1370 c 1
 63 1539 l 1
 729 1540 250 758 710 759 c 1
 710 571 l 1
EndSplineSet
EndChar

StartChar: bracketleft
Encoding: 60 91 139
Width: 900
VWidth: 0
Flags: HW
LayerCount: 2
Fore
SplineSet
121 1579 m 1
 785 1579 l 1
 785 1436 l 1
 314 1436 l 1
 314 143 l 1
 785 143 l 1
 785 0 l 1
 121 0 l 1
 121 1579 l 1
EndSplineSet
EndChar

StartChar: bracketright
Encoding: 62 93 140
Width: 900
VWidth: 0
Flags: HW
LayerCount: 2
Fore
SplineSet
116 1579 m 1
 780 1579 l 1
 780 0 l 1
 116 0 l 1
 116 143 l 1
 587 143 l 1
 587 1436 l 1
 116 1436 l 1
 116 1579 l 1
EndSplineSet
EndChar

StartChar: breve
Encoding: 347 728 141
Width: 565
VWidth: 0
Flags: HW
LayerCount: 2
Fore
SplineSet
426 1149 m 1
 553 1149 l 5
 553 1002 441 889 287 889 c 0
 131 889 13 997 13 1149 c 1
 140 1149 l 1
 140 1063 202 990 285 990 c 0
 369 990 426 1061 426 1149 c 1
EndSplineSet
EndChar

StartChar: brokenbar
Encoding: 101 166 142
Width: 430
VWidth: 0
Flags: HW
LayerCount: 2
Fore
SplineSet
122 0 m 1
 122 690 l 1
 310 690 l 1
 310 0 l 1
 122 0 l 1
122 889 m 1
 122 1579 l 1
 310 1579 l 1
 310 889 l 1
 122 889 l 1
EndSplineSet
EndChar

StartChar: bullet
Encoding: 367 8226 143
Width: 925
VWidth: 0
Flags: HW
LayerCount: 2
Fore
SplineSet
461 358 m 0
 273 358 113 500 113 692 c 0
 113 885 272 1028 461 1028 c 0
 648 1028 811 884 811 692 c 0
 811 497 651 358 461 358 c 0
EndSplineSet
EndChar

StartChar: c
Encoding: 68 99 144
Width: 1091
VWidth: 0
Flags: HW
LayerCount: 2
Fore
SplineSet
285 580 m 0
 285 360 358 125 615 117 c 0
 736 113 857 162 944 236 c 1
 1001 111 l 1
 887 18 752 -25 610 -20 c 0
 260 -8 102 260 102 580 c 0
 102 903 270 1190 623 1190 c 0
 764 1190 887 1145 1001 1057 c 1
 943 931 l 1
 855 1007 746 1050 630 1050 c 0
 360 1050 285 810 285 580 c 0
EndSplineSet
EndChar

StartChar: caron
Encoding: 346 711 146
Width: 877
VWidth: 0
Flags: HW
LayerCount: 2
Fore
SplineSet
438 577 m 1
 660 964 l 1
 778 886 l 1
 486 432 l 1
 390 432 l 1
 98 886 l 1
 216 964 l 1
 438 577 l 1
EndSplineSet
EndChar

StartChar: cedilla
Encoding: 118 184 151
Width: 502
VWidth: 0
Flags: HW
LayerCount: 2
Fore
SplineSet
67 -540 m 1
 67 -423 l 1
 107 -437 192 -464 231 -464 c 0
 333 -464 370 -437 370 -328 c 0
 370 -189 222 -186 117 -186 c 1
 117 76 l 1
 238 76 l 1
 238 -98 l 1
 405 -98 503 -166 503 -342 c 0
 503 -506 409 -578 251 -578 c 0
 188 -578 126 -560 67 -540 c 1
EndSplineSet
EndChar

StartChar: cent
Encoding: 97 162 152
Width: 1014
VWidth: 0
Flags: HW
LayerCount: 2
Fore
SplineSet
537 129 m 1
 537 1037 l 1
 303 1007 253 781 253 580 c 0
 253 385 307 153 537 129 c 1
537 -159 m 1
 537 -22 l 1
 203 -2 63 272 63 580 c 0
 63 895 202 1156 537 1189 c 1
 537 1329 l 1
 640 1329 l 1
 640 1186 l 1
 744 1185 873 1131 962 1077 c 1
 905 944 l 1
 833 997 730 1037 640 1038 c 1
 640 130 l 1
 731 130 827 158 905 205 c 1
 951 68 l 1
 862 23 740 -18 640 -19 c 1
 640 -159 l 1
 537 -159 l 1
EndSplineSet
EndChar

StartChar: circumflex
Encoding: 345 710 153
Width: 877
VWidth: 0
Flags: HW
LayerCount: 2
Fore
SplineSet
438 819 m 1
 216 432 l 1
 98 510 l 1
 390 964 l 1
 486 964 l 1
 778 510 l 1
 660 432 l 1
 438 819 l 1
EndSplineSet
EndChar

StartChar: colon
Encoding: 27 58 154
Width: 528
VWidth: 0
Flags: HW
LayerCount: 2
Fore
SplineSet
129 864 m 1
 399 864 l 1
 399 583 l 1
 129 583 l 1
 129 864 l 1
129 281 m 1
 399 281 l 1
 399 0 l 1
 129 0 l 1
 129 281 l 1
EndSplineSet
EndChar

StartChar: comma
Encoding: 13 44 155
Width: 522
VWidth: 0
Flags: HW
LayerCount: 2
Fore
SplineSet
121 0 m 1
 121 293 l 1
 402 293 l 1
 402 44 l 2
 402 -110 319 -211 173 -253 c 1
 122 -159 l 1
 207 -130 253 -95 252 0 c 1
 121 0 l 1
EndSplineSet
EndChar

StartChar: copyright
Encoding: 104 169 156
Width: 1817
VWidth: 0
Flags: HW
LayerCount: 2
Fore
SplineSet
183 829 m 0
 183 410 491 101 910 101 c 0
 1329 101 1637 410 1637 829 c 0
 1637 1229 1312 1562 910 1562 c 0
 507 1562 183 1230 183 829 c 0
35 830 m 0
 35 1308 437 1687 910 1687 c 0
 1383 1687 1785 1308 1785 830 c 0
 1785 344 1389 -23 910 -23 c 0
 429 -23 35 342 35 830 c 0
947 336 m 0
 614 336 425 494 425 831 c 0
 425 1168 614 1326 947 1326 c 0
 1045 1326 1141 1292 1227 1248 c 1
 1227 1122 l 1
 1136 1168 1036 1198 933 1198 c 0
 673 1198 587 1087 587 831 c 0
 587 575 673 464 933 464 c 0
 1036 464 1136 494 1227 540 c 1
 1227 414 l 1
 1141 370 1045 336 947 336 c 0
EndSplineSet
EndChar

StartChar: currency
Encoding: 99 164 157
Width: 1180
VWidth: 0
Flags: HW
LayerCount: 2
Fore
SplineSet
231 742 m 1
 187 809 163 887 163 967 c 0
 163 1053 190 1137 238 1208 c 1
 44 1402 l 1
 168 1526 l 1
 362 1333 l 1
 434 1382 518 1409 605 1409 c 0
 685 1409 763 1385 830 1341 c 1
 1016 1526 l 1
 1140 1402 l 1
 953 1215 l 1
 994 1150 1014 1076 1014 1000 c 0
 1014 913 987 829 938 757 c 1
 1140 555 l 1
 1016 430 l 1
 813 633 l 1
 742 584 659 558 573 558 c 0
 497 558 422 578 357 619 c 1
 168 430 l 1
 44 555 l 1
 231 742 l 1
306 975 m 0
 306 829 434 699 580 699 c 0
 732 699 872 840 872 992 c 0
 872 1138 744 1266 598 1266 c 0
 444 1266 306 1130 306 975 c 0
EndSplineSet
EndChar

StartChar: d
Encoding: 69 100 158
Width: 1248
VWidth: 0
Flags: HW
LayerCount: 2
Fore
SplineSet
284 587 m 0
 284 381 326 117 582 117 c 0
 704 117 846 181 929 275 c 1
 929 903 l 1
 828 980 706 1047 576 1047 c 0
 326 1047 284 787 284 587 c 0
102 584 m 0
 102 870 232 1190 564 1190 c 0
 691 1190 848 1129 929 1028 c 1
 929 1614 l 1
 1119 1579 l 1
 1119 0 l 1
 978 0 l 1
 950 179 l 1
 867 71 726 -20 586 -20 c 0
 236 -20 102 275 102 584 c 0
EndSplineSet
EndChar

StartChar: dagger
Encoding: 365 8224 159
Width: 1085
VWidth: 0
Flags: HW
LayerCount: 2
Fore
SplineSet
969 1020 m 1
 641 1020 l 1
 641 0 l 1
 451 0 l 1
 451 1020 l 1
 115 1020 l 1
 115 1161 l 1
 450 1161 l 1
 450 1468 l 1
 643 1468 l 1
 643 1161 l 1
 969 1161 l 1
 969 1020 l 1
EndSplineSet
EndChar

StartChar: daggerdbl
Encoding: 366 8225 160
Width: 1092
VWidth: 0
Flags: HW
LayerCount: 2
Fore
SplineSet
972 1020 m 1
 644 1020 l 1
 644 444 l 1
 970 444 l 1
 970 305 l 1
 644 305 l 1
 644 0 l 1
 453 0 l 1
 453 305 l 1
 118 305 l 1
 118 444 l 1
 453 444 l 1
 453 1020 l 1
 118 1020 l 1
 118 1161 l 1
 453 1161 l 1
 453 1468 l 1
 646 1468 l 1
 646 1161 l 1
 972 1161 l 1
 972 1020 l 1
EndSplineSet
EndChar

StartChar: dcroat
Encoding: 207 273 162
Width: 1253
VWidth: 0
Flags: HW
LayerCount: 2
Fore
SplineSet
113 584 m 0
 113 870 243 1190 575 1190 c 0
 702 1190 859 1129 940 1028 c 1
 940 1317 l 1
 571 1317 l 1
 571 1434 l 1
 940 1434 l 1
 940 1614 l 1
 1130 1579 l 1
 1130 1434 l 1
 1253 1434 l 1
 1253 1317 l 1
 1130 1317 l 1
 1130 0 l 1
 989 0 l 1
 961 179 l 1
 878 71 737 -20 597 -20 c 0
 247 -20 113 275 113 584 c 0
295 587 m 0
 295 381 337 117 593 117 c 0
 715 117 857 181 940 275 c 1
 940 903 l 1
 839 980 717 1047 587 1047 c 0
 337 1047 295 787 295 587 c 0
EndSplineSet
EndChar

StartChar: degree
Encoding: 111 176 163
Width: 565
VWidth: 0
Flags: HW
LayerCount: 2
Fore
SplineSet
287 1139 m 0
 424 1139 523 1035 523 899 c 0
 523 762 425 660 287 660 c 0
 149 660 43 759 43 899 c 0
 43 1039 148 1139 287 1139 c 0
285 1048 m 0
 202 1048 140 980 140 899 c 0
 140 819 204 750 285 750 c 0
 369 750 426 817 426 899 c 0
 426 981 369 1048 285 1048 c 0
EndSplineSet
EndChar

StartChar: dieresis
Encoding: 103 168 164
Width: 820
VWidth: 0
Flags: HW
LayerCount: 2
Fore
SplineSet
663 611 m 0
 728 611 771 558 771 496 c 0
 771 434 728 381 663 381 c 0
 599 381 551 433 551 496 c 0
 551 558 600 611 663 611 c 0
173 611 m 0
 238 611 281 558 281 496 c 0
 281 434 238 381 173 381 c 0
 109 381 61 433 61 496 c 0
 61 558 110 611 173 611 c 0
EndSplineSet
EndChar

StartChar: divide
Encoding: 181 247 165
Width: 724
VWidth: 0
Flags: HW
LayerCount: 2
Fore
SplineSet
346 445 m 0
 411 445 454 392 454 330 c 0
 454 268 411 215 346 215 c 0
 282 215 234 267 234 330 c 0
 234 392 283 445 346 445 c 0
348 930 m 0
 413 930 456 877 456 815 c 0
 456 753 413 700 348 700 c 0
 284 700 236 752 236 815 c 0
 236 877 285 930 348 930 c 0
691 508 m 1
 9 508 l 1
 9 639 l 1
 691 639 l 1
 691 508 l 1
EndSplineSet
EndChar

StartChar: dollar
Encoding: 5 36 166
Width: 1019
VWidth: 0
Flags: HW
LayerCount: 2
Fore
SplineSet
576 539 m 1
 576 134 l 1
 692 137 797 204 797 329 c 0
 797 464 679 498 576 539 c 1
473 745 m 1
 473 1100 l 1
 348 1100 223 1078 223 924 c 0
 223 805 380 759 473 745 c 1
124 63 m 1
 173 207 l 1
 274 169 365 142 473 129 c 1
 473 572 l 1
 259 618 60 664 60 929 c 0
 60 1156 285 1234 473 1240 c 1
 473 1390 l 1
 576 1390 l 1
 576 1236 l 1
 664 1234 794 1217 878 1189 c 0
 882 1187 907 1179 907 1172 c 2
 907 1171 l 1
 855 1040 l 1
 767 1077 670 1092 576 1098 c 1
 576 709 l 1
 763 646 962 568 962 340 c 0
 962 101 793 0 576 -18 c 1
 576 -178 l 1
 473 -178 l 1
 473 -20 l 1
 347 -11 244 23 124 63 c 1
EndSplineSet
EndChar

StartChar: dotaccent
Encoding: 348 729 167
Width: 456
VWidth: 0
Flags: HW
LayerCount: 2
Fore
SplineSet
230 213 m 0
 295 213 338 160 338 98 c 0
 338 36 295 -17 230 -17 c 0
 166 -17 118 35 118 98 c 0
 118 160 167 213 230 213 c 0
EndSplineSet
EndChar

StartChar: dotlessi
Encoding: 237 305 168
Width: 403
VWidth: 0
Flags: HW
LayerCount: 2
Fore
SplineSet
293 0 m 1
 111 0 l 1
 111 1169 l 1
 293 1169 l 1
 293 0 l 1
EndSplineSet
EndChar

StartChar: e
Encoding: 70 101 169
Width: 1147
VWidth: 0
Flags: HW
LayerCount: 2
Fore
SplineSet
289 563 m 1
 291 326 372 117 638 117 c 0
 751 117 859 165 944 244 c 1
 1006 99 l 1
 907 30 748 -20 626 -20 c 0
 264 -20 102 246 102 578 c 0
 102 897 265 1190 617 1190 c 0
 923 1190 1060 957 1060 676 c 0
 1060 638 1055 600 1049 563 c 1
 289 563 l 1
892 717 m 2
 892 898 823 1057 618 1057 c 0
 390 1057 310 882 293 682 c 1
 892 682 l 1
 892 717 l 2
EndSplineSet
EndChar

StartChar: eight
Encoding: 25 56 176
Width: 1186
VWidth: 0
Flags: HW
LayerCount: 2
Fore
SplineSet
599 691 m 0
 752 691 888 806 888 964 c 0
 888 1140 755 1199 599 1199 c 0
 445 1199 298 1145 298 966 c 0
 298 805 445 691 599 691 c 0
599 -9 m 0
 791 -9 888 54 888 253 c 0
 888 422 778 575 599 575 c 0
 418 575 298 430 298 255 c 0
 298 54 409 -9 599 -9 c 0
599 1334 m 0
 828 1334 1066 1227 1066 966 c 0
 1066 795 959 687 804 634 c 1
 990 576 1066 416 1066 231 c 0
 1066 -41 841 -148 599 -148 c 0
 358 -148 120 -41 120 233 c 0
 120 418 196 578 382 636 c 1
 227 687 120 798 120 968 c 0
 120 1231 372 1334 599 1334 c 0
EndSplineSet
EndChar

StartChar: emdash
Encoding: 358 8212 179
Width: 1187
VWidth: 0
Flags: HW
LayerCount: 2
Fore
SplineSet
1063 555 m 5
 123 555 l 5
 123 699 l 5
 1063 699 l 5
 1063 555 l 5
EndSplineSet
EndChar

StartChar: endash
Encoding: 357 8211 180
Width: 717
VWidth: 0
Flags: HW
LayerCount: 2
Fore
SplineSet
593 555 m 1
 123 555 l 1
 123 699 l 1
 593 699 l 1
 593 555 l 1
EndSplineSet
EndChar

StartChar: equal
Encoding: 30 61 182
Width: 835
VWidth: 0
Flags: HW
LayerCount: 2
Fore
SplineSet
711 280 m 1
 123 280 l 1
 123 411 l 1
 711 411 l 1
 711 280 l 1
711 508 m 1
 123 508 l 1
 123 639 l 1
 711 639 l 1
 711 508 l 1
EndSplineSet
EndChar

StartChar: eth
Encoding: 174 240 183
Width: 1131
VWidth: 0
Flags: HW
LayerCount: 2
Fore
SplineSet
867 666 m 0
 867 869 759 1047 540 1047 c 0
 265 1047 216 822 216 587 c 0
 216 384 258 123 514 123 c 0
 829 123 867 412 867 666 c 0
1051 690 m 0
 1051 324 944 -20 518 -20 c 0
 168 -20 34 275 34 584 c 0
 34 870 164 1190 496 1190 c 0
 622 1190 780 1129 861 1028 c 1
 818 1158 741 1277 652 1380 c 1
 417 1311 l 1
 375 1401 l 1
 578 1461 l 1
 511 1528 438 1590 357 1641 c 1
 441 1743 l 1
 556 1679 644 1599 737 1508 c 1
 1023 1593 l 1
 1065 1503 l 1
 805 1426 l 1
 971 1200 1051 973 1051 690 c 0
EndSplineSet
EndChar

StartChar: exclam
Encoding: 2 33 184
Width: 448
VWidth: 0
Flags: HW
LayerCount: 2
Fore
SplineSet
314 399 m 1
 140 399 l 1
 140 1579 l 1
 314 1579 l 1
 314 399 l 1
327 186 m 1
 327 -16 l 1
 118 -16 l 1
 118 186 l 1
 327 186 l 1
EndSplineSet
EndChar

StartChar: exclamdown
Encoding: 96 161 185
Width: 410
VWidth: 0
Flags: HW
LayerCount: 2
Fore
SplineSet
296 1180 m 1
 296 0 l 1
 122 0 l 1
 122 1180 l 1
 296 1180 l 1
281 1393 m 1
 72 1393 l 1
 72 1595 l 1
 281 1595 l 1
 281 1393 l 1
EndSplineSet
EndChar

StartChar: f
Encoding: 71 102 186
Width: 773
VWidth: 0
Flags: HW
LayerCount: 2
Fore
SplineSet
583 1516 m 0
 368 1516 418 1332 418 1169 c 1
 766 1169 l 1
 766 1064 l 1
 418 1064 l 1
 418 0 l 1
 228 0 l 1
 228 1064 l 1
 33 1064 l 1
 33 1169 l 1
 228 1169 l 1
 228 1421 255 1659 559 1659 c 0
 640 1659 736 1615 801 1567 c 1
 738 1442 l 1
 696 1480 642 1516 583 1516 c 0
EndSplineSet
EndChar

StartChar: ff
Encoding: 384 64256 187
Width: 1466
VWidth: 0
Flags: HW
LayerCount: 2
Fore
SplineSet
1276 1516 m 0
 1061 1516 1111 1332 1111 1169 c 1
 1459 1169 l 1
 1459 1064 l 1
 1111 1064 l 1
 1111 0 l 1
 921 0 l 1
 921 1064 l 1
 418 1064 l 1
 418 0 l 1
 228 0 l 1
 228 1064 l 1
 33 1064 l 1
 33 1169 l 1
 228 1169 l 1
 228 1421 255 1659 559 1659 c 0
 640 1659 736 1615 801 1567 c 1
 738 1442 l 1
 696 1480 642 1516 583 1516 c 0
 368 1516 418 1332 418 1169 c 1
 921 1169 l 1
 921 1421 948 1659 1252 1659 c 0
 1333 1659 1429 1615 1494 1567 c 1
 1431 1442 l 1
 1389 1480 1335 1516 1276 1516 c 0
EndSplineSet
LCarets2: 1 0 
Ligature2: "'liga' Standard Ligatures lookup 0-1" f f
EndChar

StartChar: ffi
Encoding: 385 64259 188
Width: 1973
VWidth: 0
Flags: HW
LayerCount: 2
Fore
SplineSet
1821 0 m 1
 1639 0 l 1
 1639 1064 l 1
 1123 1064 l 1
 1123 0 l 1
 933 0 l 1
 933 1064 l 1
 418 1064 l 1
 418 0 l 1
 228 0 l 1
 228 1064 l 1
 33 1064 l 1
 33 1169 l 1
 228 1169 l 1
 228 1421 255 1659 559 1659 c 0
 640 1659 736 1615 801 1567 c 1
 738 1442 l 1
 696 1480 642 1516 583 1516 c 0
 368 1516 418 1332 418 1169 c 1
 933 1169 l 1
 933 1421 960 1659 1264 1659 c 0
 1345 1659 1441 1615 1506 1567 c 1
 1443 1442 l 1
 1401 1480 1347 1516 1288 1516 c 0
 1073 1516 1123 1332 1123 1169 c 1
 1821 1169 l 1
 1821 0 l 1
1734 1577 m 0
 1799 1577 1842 1524 1842 1462 c 0
 1842 1400 1799 1347 1734 1347 c 0
 1670 1347 1622 1399 1622 1462 c 0
 1622 1524 1671 1577 1734 1577 c 0
EndSplineSet
LCarets2: 2 0 0 
Ligature2: "'liga' Standard Ligatures lookup 0-1" f f i
EndChar

StartChar: five
Encoding: 22 53 189
Width: 990
VWidth: 0
Flags: HW
LayerCount: 2
Fore
SplineSet
441 -56 m 0
 642 -56 758 36 758 244 c 0
 758 435 660 562 461 562 c 0
 363 562 248 510 162 468 c 1
 94 537 l 1
 94 1169 l 1
 842 1169 l 1
 842 1018 l 1
 239 1018 l 1
 239 622 l 1
 290 679 409 698 479 698 c 0
 748 698 930 518 930 248 c 0
 930 -49 723 -207 439 -207 c 0
 297 -207 186 -165 58 -114 c 1
 109 31 l 1
 207 -19 331 -56 441 -56 c 0
EndSplineSet
EndChar

StartChar: florin
Encoding: 305 402 190
Width: 898
VWidth: 0
Flags: HW
LayerCount: 2
Fore
SplineSet
713 1516 m 0
 566 1516 533 1422 521 1307 c 0
 515 1253 514 1195 508 1139 c 1
 856 1139 l 1
 845 1034 l 1
 497 1034 l 1
 399 210 l 2
 360 -119 312 -340 -20 -340 c 0
 -91 -340 -170 -301 -222 -258 c 1
 -146 -133 l 1
 -81 -168 -30 -183 10 -183 c 0
 162 -183 179 -87 203 138 c 2
 307 1034 l 1
 112 1034 l 1
 123 1139 l 1
 318 1139 l 1
 346 1406 400 1659 704 1659 c 0
 785 1659 876 1615 936 1567 c 1
 860 1442 l 1
 822 1480 772 1516 713 1516 c 0
EndSplineSet
EndChar

StartChar: four
Encoding: 21 52 191
Width: 1253
VWidth: 0
Flags: HW
LayerCount: 2
Fore
SplineSet
785 930 m 1
 295 205 l 1
 785 205 l 1
 785 930 l 1
794 1208 m 1
 956 1169 l 1
 956 207 l 1
 1142 207 l 1
 1142 68 l 1
 956 68 l 1
 956 -260 l 1
 785 -260 l 1
 785 68 l 1
 138 68 l 1
 110 205 l 1
 794 1208 l 1
EndSplineSet
EndChar

StartChar: fraction
Encoding: 371 8260 192
Width: 1287
VWidth: 0
Flags: HW
LayerCount: 2
Fore
SplineSet
64 -30 m 1
 1103 1365 l 1
 1225 1272 l 1
 184 -123 l 1
 64 -30 l 1
EndSplineSet
EndChar

StartChar: g
Encoding: 72 103 193
Width: 1218
VWidth: 0
Flags: HW
LayerCount: 2
Fore
SplineSet
558 -278 m 0
 764 -278 967 -284 967 -111 c 0
 967 69 829 80 692 80 c 2
 376 80 l 1
 313 40 279 -35 279 -110 c 0
 279 -250 435 -278 558 -278 c 0
573 1059 m 0
 374 1059 279 960 279 817 c 0
 279 696 383 597 450 546 c 1
 493 549 601 574 636 582 c 0
 814 622 845 684 845 794 c 0
 845 945 758 1059 573 1059 c 0
121 -125 m 0
 121 -10 188 65 287 111 c 1
 218 157 168 237 168 320 c 0
 168 424 213 471 313 506 c 1
 192 576 118 685 118 838 c 0
 118 1029 299 1190 572 1190 c 0
 669 1190 773 1175 852 1114 c 1
 951 1165 1048 1170 1157 1171 c 1
 1159 1026 l 1
 919 1026 l 1
 963 990 1004 900 1006 824 c 1
 1006 527 832 479 493 416 c 0
 388 396 307 385 307 321 c 0
 307 261 348 219 348 219 c 1
 664 219 l 2
 921 219 1129 176 1129 -106 c 0
 1129 -376 854 -412 548 -412 c 0
 346 -412 121 -368 121 -125 c 0
EndSplineSet
EndChar

StartChar: gcedilla
Encoding: 221 291 195
Width: 1225
VWidth: 0
Flags: HW
LayerCount: 2
Fore
SplineSet
248 107 m 1
 179 154 129 235 129 320 c 0
 129 424 215 506 315 521 c 1
 186 578 118 718 118 854 c 0
 118 1089 356 1190 559 1190 c 0
 656 1190 760 1175 839 1114 c 1
 938 1165 1035 1170 1144 1171 c 1
 1144 1026 l 1
 906 1026 l 1
 979 983 989 888 989 812 c 0
 989 296 268 511 268 322 c 0
 268 284 278 246 289 210 c 1
 547 210 1116 293 1116 -106 c 0
 1116 -372 799 -427 592 -427 c 0
 378 -427 82 -407 82 -125 c 0
 82 -12 149 62 248 107 c 1
279 845 m 0
 279 729 353 599 462 552 c 1
 685 580 822 593 822 860 c 0
 822 1031 698 1058 555 1058 c 0
 414 1058 279 1009 279 845 c 0
240 -110 m 0
 240 -285 447 -277 572 -277 c 0
 691 -277 954 -285 954 -111 c 0
 954 65 796 76 659 76 c 2
 337 76 l 1
 274 37 240 -37 240 -110 c 0
EndSplineSet
EndChar

StartChar: germandbls
Encoding: 157 223 198
Width: 1303
VWidth: 0
Flags: HW
LayerCount: 2
Fore
SplineSet
901 1200 m 0
 901 1399 748 1436 580 1436 c 0
 306 1436 305 1240 305 1018 c 2
 305 16 l 1
 111 -6 l 1
 110 1046 l 2
 110 1381 221 1579 580 1579 c 0
 856 1579 1073 1484 1073 1176 c 0
 1073 1015 1002 864 827 844 c 1
 1100 844 1255 661 1255 395 c 0
 1255 -37 831 -129 481 -129 c 1
 481 27 l 1
 797 27 1073 62 1073 432 c 0
 1073 759 690 774 449 774 c 1
 449 905 l 1
 688 894 901 914 901 1200 c 0
EndSplineSet
EndChar

StartChar: grave
Encoding: 65 96 199
Width: 430
VWidth: 0
Flags: HW
LayerCount: 2
Fore
SplineSet
453 328 m 1
 39 759 l 1
 200 860 l 1
 510 354 l 1
 453 328 l 1
EndSplineSet
EndChar

StartChar: greater
Encoding: 31 62 200
Width: 694
VWidth: 0
Flags: HW
LayerCount: 2
Fore
SplineSet
730 663 m 1
 75 60 l 1
 -27 170 l 1
 524 663 l 1
 -27 1156 l 1
 75 1266 l 1
 730 663 l 1
EndSplineSet
EndChar

StartChar: greaterequal
Encoding: 380 8805 201
Width: 1036
VWidth: 0
Flags: HW
LayerCount: 2
Fore
SplineSet
890 36 m 5
 133 36 l 5
 133 180 l 5
 890 180 l 5
 890 36 l 5
912 743 m 1
 257 240 l 5
 175 350 l 5
 706 743 l 1
 175 1156 l 1
 257 1266 l 1
 912 743 l 1
EndSplineSet
EndChar

StartChar: guillemotleft
Encoding: 106 171 202
Width: 1273
VWidth: 0
Flags: HW
LayerCount: 2
Fore
SplineSet
623 842 m 1
 187 577 l 1
 623 306 l 1
 623 99 l 1
 15 481 l 1
 15 666 l 1
 623 1049 l 1
 623 842 l 1
1231 842 m 1
 794 577 l 1
 1231 306 l 1
 1231 99 l 1
 623 481 l 1
 623 666 l 1
 1231 1049 l 1
 1231 842 l 1
EndSplineSet
EndChar

StartChar: guillemotright
Encoding: 121 187 203
Width: 1280
VWidth: 0
Flags: HW
LayerCount: 2
Fore
SplineSet
666 842 m 1
 666 1049 l 1
 1275 666 l 1
 1275 481 l 1
 666 99 l 1
 666 306 l 1
 1113 577 l 1
 666 842 l 1
59 842 m 1
 59 1049 l 1
 668 666 l 1
 668 481 l 1
 59 99 l 1
 59 306 l 1
 506 577 l 1
 59 842 l 1
EndSplineSet
EndChar

StartChar: guilsinglleft
Encoding: 369 8249 204
Width: 576
VWidth: 0
Flags: HW
LayerCount: 2
Fore
SplineSet
590 842 m 1
 143 577 l 1
 590 306 l 1
 590 99 l 1
 -18 481 l 1
 -18 666 l 1
 590 1049 l 1
 590 842 l 1
EndSplineSet
EndChar

StartChar: guilsinglright
Encoding: 370 8250 205
Width: 577
VWidth: 0
Flags: HW
LayerCount: 2
Fore
SplineSet
-12 842 m 1
 -12 1049 l 1
 596 666 l 1
 596 481 l 1
 -12 99 l 1
 -12 306 l 1
 434 577 l 1
 -12 842 l 1
EndSplineSet
EndChar

StartChar: h
Encoding: 73 104 206
Width: 1232
VWidth: 0
Flags: HW
LayerCount: 2
Fore
SplineSet
691 1047 m 0
 567 1047 402 979 316 888 c 1
 316 0 l 1
 126 0 l 1
 126 1579 l 1
 316 1616 l 1
 316 1011 l 1
 422 1108 542 1190 705 1190 c 0
 998 1190 1113 1018 1113 727 c 2
 1113 0 l 1
 923 0 l 1
 923 727 l 2
 923 892 885 1047 691 1047 c 0
EndSplineSet
EndChar

StartChar: hbar
Encoding: 227 295 207
Width: 1229
VWidth: 0
Flags: HW
LayerCount: 2
Fore
SplineSet
688 1047 m 0
 564 1047 399 979 313 888 c 1
 313 0 l 1
 123 0 l 1
 123 1357 l 1
 0 1357 l 1
 0 1474 l 1
 123 1474 l 1
 123 1579 l 1
 313 1616 l 1
 313 1474 l 1
 682 1474 l 1
 682 1357 l 1
 313 1357 l 1
 313 1011 l 1
 419 1108 539 1190 702 1190 c 0
 995 1190 1110 1018 1110 727 c 2
 1110 0 l 1
 920 0 l 1
 920 727 l 2
 920 892 882 1047 688 1047 c 0
EndSplineSet
EndChar

StartChar: hungarumlaut
Encoding: 352 733 209
Width: 845
VWidth: 0
Flags: HW
LayerCount: 2
Fore
SplineSet
96 328 m 1
 39 354 l 1
 349 860 l 1
 510 759 l 1
 96 328 l 1
408 328 m 1
 351 354 l 1
 661 860 l 1
 822 759 l 1
 408 328 l 1
EndSplineSet
EndChar

StartChar: hyphen
Encoding: 14 45 210
Width: 923
VWidth: 0
Flags: HW
LayerCount: 2
Fore
SplineSet
799 508 m 1
 123 508 l 1
 123 665 l 1
 799 665 l 1
 799 508 l 1
EndSplineSet
EndChar

StartChar: i
Encoding: 74 105 211
Width: 492
VWidth: 0
Flags: HW
LayerCount: 2
Fore
SplineSet
253 1577 m 0
 318 1577 361 1524 361 1462 c 0
 361 1400 318 1347 253 1347 c 0
 189 1347 141 1399 141 1462 c 0
 141 1524 190 1577 253 1577 c 0
340 0 m 1
 158 0 l 1
 158 1169 l 1
 340 1169 l 1
 340 0 l 1
EndSplineSet
EndChar

StartChar: ij
Encoding: 239 307 217
Width: 1010
VWidth: 0
Flags: HW
LayerCount: 2
Fore
SplineSet
776 1577 m 0
 841 1577 884 1524 884 1462 c 0
 884 1400 841 1347 776 1347 c 0
 712 1347 664 1399 664 1462 c 0
 664 1524 713 1577 776 1577 c 0
494 -258 m 1
 668 -147 682 -14 682 176 c 2
 682 1169 l 1
 872 1169 l 1
 872 154 l 2
 872 -68 779 -315 541 -373 c 1
 494 -258 l 1
253 1577 m 0
 318 1577 361 1524 361 1462 c 0
 361 1400 318 1347 253 1347 c 0
 189 1347 141 1399 141 1462 c 0
 141 1524 190 1577 253 1577 c 0
340 0 m 1
 158 0 l 1
 158 1169 l 1
 340 1169 l 1
 340 0 l 1
EndSplineSet
EndChar

StartChar: integral
Encoding: 376 8747 219
Width: 1289
VWidth: 0
Flags: HW
LayerCount: 2
Fore
SplineSet
1006 1516 m 0
 791 1516 821 1332 804 1169 c 2
 678 -34 l 2
 652 -286 599 -524 295 -524 c 0
 214 -524 123 -480 63 -432 c 1
 139 -307 l 1
 177 -345 227 -381 286 -381 c 0
 501 -381 471 -197 488 -34 c 2
 614 1169 l 2
 640 1421 693 1659 997 1659 c 0
 1078 1659 1169 1615 1229 1567 c 1
 1153 1442 l 1
 1115 1480 1065 1516 1006 1516 c 0
EndSplineSet
EndChar

StartChar: j
Encoding: 75 106 222
Width: 539
VWidth: 0
Flags: HW
LayerCount: 2
Fore
SplineSet
305 1577 m 4
 370 1577 413 1524 413 1462 c 4
 413 1400 370 1347 305 1347 c 4
 241 1347 193 1399 193 1462 c 4
 193 1524 242 1577 305 1577 c 4
23 -258 m 5
 197 -147 211 -14 211 176 c 6
 211 1169 l 5
 401 1169 l 5
 401 154 l 6
 401 -68 308 -315 70 -373 c 5
 23 -258 l 5
EndSplineSet
EndChar

StartChar: k
Encoding: 76 107 224
Width: 1125
VWidth: 0
Flags: HW
LayerCount: 2
Fore
SplineSet
1077 1169 m 1
 566 658 l 1
 1128 0 l 1
 903 0 l 1
 427 565 l 1
 321 459 l 1
 321 0 l 1
 131 0 l 1
 131 1579 l 1
 321 1614 l 1
 321 643 l 1
 846 1169 l 1
 1077 1169 l 1
EndSplineSet
EndChar

StartChar: kgreenlandic
Encoding: 244 312 226
Width: 1213
VWidth: 0
Flags: HW
LayerCount: 2
Fore
SplineSet
1099 1169 m 1
 546 648 l 1
 1132 0 l 1
 911 0 l 1
 431 555 l 1
 315 459 l 1
 315 0 l 1
 125 0 l 1
 125 1579 l 1
 315 1614 l 1
 315 627 l 1
 874 1169 l 1
 1099 1169 l 1
EndSplineSet
EndChar

StartChar: l
Encoding: 77 108 227
Width: 482
VWidth: 0
Flags: HW
LayerCount: 2
Fore
SplineSet
146 0 m 1
 146 1579 l 1
 336 1614 l 1
 336 0 l 1
 146 0 l 1
EndSplineSet
EndChar

StartChar: less
Encoding: 29 60 232
Width: 868
VWidth: 0
Flags: HW
LayerCount: 2
Fore
SplineSet
52 663 m 1
 707 1266 l 1
 809 1156 l 1
 258 663 l 1
 809 170 l 1
 707 60 l 1
 52 663 l 1
EndSplineSet
EndChar

StartChar: lessequal
Encoding: 379 8804 233
Width: 1035
VWidth: 0
Flags: HW
LayerCount: 2
Fore
SplineSet
147 36 m 1
 147 180 l 1
 904 180 l 1
 904 36 l 1
 147 36 l 1
125 743 m 1
 780 1266 l 1
 862 1156 l 1
 331 743 l 1
 862 350 l 1
 780 240 l 1
 125 743 l 1
EndSplineSet
EndChar

StartChar: logicalnot
Encoding: 107 172 234
Width: 1452
VWidth: 0
Flags: HW
LayerCount: 2
Fore
SplineSet
1355 338 m 1
 1179 338 l 1
 1179 1023 l 1
 1 1023 l 1
 1 1174 l 1
 1355 1174 l 1
 1355 338 l 1
EndSplineSet
EndChar

StartChar: lozenge
Encoding: 381 9674 235
Width: 1195
VWidth: 0
Flags: HW
LayerCount: 2
Fore
SplineSet
597 1326 m 1
 1073 663 l 1
 597 0 l 1
 121 663 l 1
 597 1326 l 1
597 1106 m 1
 307 663 l 1
 597 220 l 1
 887 663 l 1
 597 1106 l 1
EndSplineSet
EndChar

StartChar: lslash
Encoding: 254 322 236
Width: 437
VWidth: 0
Flags: HW
LayerCount: 2
Fore
SplineSet
123 0 m 1
 123 1579 l 1
 313 1614 l 1
 313 0 l 1
 123 0 l 1
EndSplineSet
EndChar

StartChar: m
Encoding: 78 109 237
Width: 1903
VWidth: 0
Flags: HW
LayerCount: 2
Fore
SplineSet
1008 967 m 1
 1100 1101 1265 1190 1428 1190 c 0
 1677 1190 1784 992 1784 766 c 2
 1784 0 l 1
 1594 0 l 1
 1594 768 l 2
 1594 912 1571 1047 1400 1047 c 0
 1257 1047 1133 957 1038 858 c 1
 1038 0 l 1
 848 0 l 1
 848 768 l 2
 848 912 828 1047 656 1047 c 0
 524 1047 404 966 316 878 c 1
 316 0 l 1
 126 0 l 1
 126 1169 l 1
 267 1169 l 1
 290 982 l 1
 385 1112 527 1190 687 1190 c 0
 837 1190 961 1112 1008 967 c 1
EndSplineSet
EndChar

StartChar: macron
Encoding: 110 175 238
Width: 836
VWidth: 0
Flags: HW
LayerCount: 2
Fore
SplineSet
770 98 m 1
 88 98 l 1
 88 215 l 1
 770 215 l 1
 770 98 l 1
EndSplineSet
EndChar

StartChar: minus
Encoding: 391 8722 239
Width: 724
VWidth: 0
Flags: HW
PickledData: "(dp1
S'com.typemytype.robofont.layerData'
p2
(dp3
s."
LayerCount: 2
Fore
SplineSet
691 508 m 1
 9 508 l 1
 9 639 l 1
 691 639 l 1
 691 508 l 1
EndSplineSet
EndChar

StartChar: mu
Encoding: 392 956 240
Width: 1227
VWidth: 0
Flags: HW
LayerCount: 2
Fore
SplineSet
537 -20 m 0
 435 -20 357 35 297 113 c 1
 297 -291 l 1
 123 -291 l 1
 123 1169 l 1
 297 1169 l 1
 297 442 l 2
 297 270 354 123 549 123 c 0
 664 123 821 183 896 274 c 1
 896 1169 l 1
 1104 1169 l 1
 1104 16 l 1
 958 16 l 1
 934 170 l 1
 830 54 696 -20 537 -20 c 0
EndSplineSet
EndChar

StartChar: multiply
Encoding: 149 215 241
Width: 901
VWidth: 0
Flags: HW
LayerCount: 2
Fore
SplineSet
24 863 m 1
 126 965 l 1
 443 648 l 1
 760 965 l 1
 862 863 l 1
 545 546 l 1
 862 229 l 1
 760 127 l 1
 443 444 l 1
 126 127 l 1
 24 229 l 1
 341 546 l 1
 24 863 l 1
EndSplineSet
EndChar

StartChar: n
Encoding: 79 110 242
Width: 1229
VWidth: 0
Flags: HW
LayerCount: 2
Fore
SplineSet
316 880 m 1
 316 0 l 1
 126 0 l 1
 126 1169 l 1
 266 1169 l 1
 290 982 l 1
 384 1101 590 1188 739 1188 c 0
 1014 1188 1110 975 1110 727 c 2
 1110 0 l 1
 920 0 l 1
 920 727 l 2
 920 884 887 1047 696 1047 c 0
 585 1047 398 956 316 880 c 1
EndSplineSet
EndChar

StartChar: nine
Encoding: 26 57 246
Width: 1235
VWidth: 0
Flags: HW
LayerCount: 2
Fore
SplineSet
1120 733 m 0
 1120 280 843 -59 405 -161 c 1
 362 -16 l 1
 632 39 870 229 922 509 c 1
 836 406 712 365 581 365 c 0
 305 365 115 544 115 823 c 0
 115 1120 320 1314 615 1314 c 0
 968 1314 1120 1059 1120 733 c 0
291 823 m 0
 291 642 390 501 581 501 c 0
 680 501 869 556 936 635 c 1
 942 675 942 716 942 757 c 0
 942 974 865 1172 615 1172 c 0
 408 1172 291 1020 291 823 c 0
EndSplineSet
EndChar

StartChar: notequal
Encoding: 378 8800 247
Width: 891
VWidth: 0
Flags: HW
LayerCount: 2
Fore
SplineSet
278 137 m 1
 330 280 l 1
 151 280 l 1
 151 411 l 1
 374 411 l 1
 407 508 l 1
 151 508 l 1
 151 639 l 1
 452 639 l 1
 518 827 l 1
 612 788 l 1
 562 639 l 1
 739 639 l 1
 739 508 l 1
 518 508 l 1
 485 411 l 1
 739 411 l 1
 739 280 l 1
 441 280 l 1
 372 98 l 1
 278 137 l 1
EndSplineSet
EndChar

StartChar: numbersign
Encoding: 4 35 249
Width: 1056
VWidth: 0
Flags: HW
LayerCount: 2
Fore
SplineSet
425 684 m 1
 608 684 l 1
 634 905 l 1
 452 905 l 1
 425 684 l 1
599 561 m 1
 413 561 l 1
 380 295 l 1
 239 295 l 1
 272 561 l 1
 106 561 l 1
 106 684 l 1
 282 684 l 1
 309 905 l 1
 134 905 l 1
 134 1030 l 1
 323 1030 l 1
 354 1309 l 1
 493 1309 l 1
 462 1030 l 1
 651 1030 l 1
 679 1307 l 1
 821 1307 l 1
 790 1030 l 1
 950 1030 l 1
 950 905 l 1
 778 905 l 1
 751 684 l 1
 927 684 l 1
 927 561 l 1
 739 561 l 1
 708 295 l 1
 567 295 l 1
 599 561 l 1
EndSplineSet
EndChar

StartChar: o
Encoding: 80 111 250
Width: 1265
VWidth: 0
Flags: HW
LayerCount: 2
Fore
SplineSet
102 582 m 0
 102 914 273 1190 632 1190 c 0
 992 1190 1163 915 1163 582 c 0
 1163 248 991 -20 632 -20 c 0
 273 -20 102 249 102 582 c 0
284 582 m 0
 284 352 362 117 632 117 c 0
 904 117 980 351 980 582 c 0
 980 812 903 1051 632 1051 c 0
 361 1051 284 812 284 582 c 0
EndSplineSet
EndChar

StartChar: oe
Encoding: 268 339 255
Width: 2025
VWidth: 0
Flags: HW
PickledData: "(dp1
S'com.typemytype.robofont.layerData'
p2
(dp3
s."
LayerCount: 2
Fore
SplineSet
632 1051 m 0
 361 1051 284 812 284 582 c 0
 284 352 362 117 632 117 c 0
 904 117 980 351 980 582 c 0
 980 812 903 1051 632 1051 c 0
1770 682 m 1
 1770 717 l 2
 1770 898 1701 1057 1496 1057 c 0
 1268 1057 1188 882 1171 682 c 1
 1770 682 l 1
1884 99 m 1
 1785 30 1626 -20 1504 -20 c 0
 1295 -20 1152 69 1069 208 c 1
 984 69 839 -20 632 -20 c 0
 273 -20 102 249 102 582 c 0
 102 914 273 1190 632 1190 c 0
 842 1190 987 1097 1072 953 c 1
 1155 1095 1294 1190 1495 1190 c 0
 1801 1190 1938 957 1938 676 c 0
 1938 638 1933 600 1927 563 c 1
 1167 563 l 1
 1169 326 1250 117 1516 117 c 0
 1629 117 1737 165 1822 244 c 1
 1884 99 l 1
EndSplineSet
EndChar

StartChar: ogonek
Encoding: 350 731 256
Width: 502
VWidth: 0
Flags: HW
LayerCount: 2
Fore
SplineSet
503 -540 m 1
 444 -560 382 -578 319 -578 c 0
 122 -578 55 -508 55 -414 c 0
 55 -235 295 33 332 76 c 1
 453 76 l 1
 453 76 203 -208 203 -364 c 0
 203 -423 239 -464 339 -464 c 0
 378 -464 463 -437 503 -423 c 1
 503 -540 l 1
EndSplineSet
EndChar

StartChar: one
Encoding: 18 49 260
Width: 650
VWidth: 0
Flags: HW
LayerCount: 2
Fore
SplineSet
348 0 m 1
 348 1057 l 1
 141 957 l 1
 88 1083 l 1
 345 1202 l 1
 535 1202 l 1
 535 0 l 1
 348 0 l 1
EndSplineSet
EndChar

StartChar: onehalf
Encoding: 123 189 261
Width: 1638
VWidth: 0
Flags: HW
LayerCount: 2
Fore
SplineSet
158 568 m 1
 158 1413 l 1
 -12 1341 l 1
 -50 1434 l 1
 188 1529 l 1
 318 1503 l 1
 318 568 l 1
 158 568 l 1
20 -30 m 1
 1059 1365 l 1
 1181 1272 l 1
 140 -123 l 1
 20 -30 l 1
1192 -20 m 1
 1598 -20 l 1
 1598 -172 l 1
 960 -172 l 1
 960 -35 l 1
 1060 54 1454 337 1454 514 c 0
 1454 620 1355 655 1265 655 c 0
 1169 655 1069 628 977 603 c 1
 977 748 l 1
 1074 785 1180 798 1283 798 c 0
 1458 798 1626 711 1626 517 c 0
 1626 289 1343 108 1192 -20 c 1
EndSplineSet
EndChar

StartChar: onequarter
Encoding: 122 188 262
Width: 1442
VWidth: 0
Flags: HW
LayerCount: 2
Fore
SplineSet
20 -30 m 1
 1059 1365 l 1
 1181 1272 l 1
 140 -123 l 1
 20 -30 l 1
158 568 m 1
 158 1413 l 1
 -12 1341 l 1
 -50 1434 l 1
 188 1529 l 1
 318 1503 l 1
 318 568 l 1
 158 568 l 1
784 144 m 1
 1172 144 l 1
 1172 703 l 1
 1045 515 916 329 784 144 c 1
1189 946 m 1
 1317 915 l 1
 1317 145 l 1
 1468 145 l 1
 1468 34 l 1
 1317 34 l 1
 1317 -227 l 1
 1172 -250 l 1
 1172 34 l 1
 647 34 l 1
 625 144 l 1
 1189 946 l 1
EndSplineSet
EndChar

StartChar: ordfeminine
Encoding: 105 170 263
Width: 913
VWidth: 0
Flags: HW
LayerCount: 2
Fore
SplineSet
57 960 m 0
 57 1169 227 1258 416 1258 c 0
 494 1258 576 1243 650 1218 c 1
 650 1276 l 2
 650 1426 628 1513 458 1513 c 0
 365 1513 250 1488 167 1443 c 1
 114 1552 l 1
 208 1607 343 1638 450 1638 c 0
 738 1638 811 1506 811 1235 c 2
 811 686 l 1
 695 686 l 1
 668 828 l 1
 620 720 484 668 374 668 c 0
 188 668 57 766 57 960 c 0
412 781 m 0
 500 781 598 831 650 903 c 1
 650 1141 l 1
 592 1150 533 1158 474 1158 c 0
 346 1158 218 1123 218 971 c 0
 218 828 270 781 412 781 c 0
121 575 m 1
 805 575 l 1
 805 446 l 1
 121 446 l 1
 121 575 l 1
EndSplineSet
EndChar

StartChar: ordmasculine
Encoding: 120 186 264
Width: 956
VWidth: 0
Flags: HW
LayerCount: 2
Fore
SplineSet
55 1152 m 0
 55 1417 193 1638 479 1638 c 0
 766 1638 904 1417 904 1152 c 0
 904 885 767 670 479 670 c 0
 192 670 55 886 55 1152 c 0
212 1154 m 0
 212 977 271 797 479 797 c 0
 688 797 746 976 746 1154 c 0
 746 1330 686 1512 479 1512 c 0
 271 1512 212 1331 212 1154 c 0
141 575 m 1
 825 575 l 1
 825 446 l 1
 141 446 l 1
 141 575 l 1
EndSplineSet
EndChar

StartChar: oslash
Encoding: 182 248 265
Width: 1161
VWidth: 0
Flags: HW
LayerCount: 2
Fore
SplineSet
565 117 m 0
 837 117 913 351 913 582 c 0
 913 729 884 905 755 996 c 1
 460 130 l 1
 494 120 530 117 565 117 c 0
217 582 m 0
 217 434 246 259 377 169 c 1
 676 1035 l 1
 640 1047 602 1051 565 1051 c 0
 294 1051 217 812 217 582 c 0
261 -168 m 1
 328 28 l 1
 112 131 35 357 35 582 c 0
 35 914 205 1190 565 1190 c 0
 618 1190 672 1184 723 1170 c 1
 790 1365 l 1
 871 1335 l 1
 804 1140 l 1
 1017 1032 1096 809 1096 582 c 0
 1096 247 926 -20 565 -20 c 0
 515 -20 464 -15 415 -2 c 1
 349 -198 l 1
 261 -168 l 1
EndSplineSet
EndChar

StartChar: p
Encoding: 81 112 267
Width: 1242
VWidth: 0
Flags: HW
LayerCount: 2
Fore
SplineSet
958 567 m 0
 958 759 922 1047 666 1047 c 0
 556 1047 393 972 316 890 c 1
 316 285 l 1
 381 202 550 117 651 117 c 0
 893 117 958 355 958 567 c 0
670 -20 m 0
 531 -20 403 58 316 164 c 1
 316 -465 l 1
 126 -487 l 1
 126 1169 l 1
 267 1169 l 1
 300 971 l 1
 387 1088 514 1190 665 1190 c 0
 1009 1190 1140 882 1140 584 c 0
 1140 291 1007 -20 670 -20 c 0
EndSplineSet
EndChar

StartChar: paragraph
Encoding: 116 182 268
Width: 1086
VWidth: 0
Flags: HW
LayerCount: 2
Fore
SplineSet
501 1578 m 2
 967 1578 l 1
 967 0 l 1
 781 0 l 1
 781 1428 l 1
 646 1428 l 1
 646 0 l 1
 456 0 l 1
 456 905 l 1
 226 905 -33 971 -33 1250 c 0
 -33 1551 268 1578 501 1578 c 2
EndSplineSet
EndChar

StartChar: parenleft
Encoding: 9 40 269
Width: 467
VWidth: 0
Flags: HW
LayerCount: 2
Fore
SplineSet
491 1493 m 1
 280 1307 189 965 189 694 c 0
 189 450 268 64 475 -97 c 1
 392 -205 l 1
 117 -30 3 392 3 696 c 0
 3 1003 117 1406 380 1595 c 1
 491 1493 l 1
EndSplineSet
EndChar

StartChar: parenright
Encoding: 10 41 270
Width: 469
VWidth: 0
Flags: HW
LayerCount: 2
Fore
SplineSet
281 694 m 0
 281 947 202 1319 -4 1491 c 1
 79 1599 l 1
 350 1413 468 1021 468 710 c 0
 468 382 363 -7 79 -205 c 1
 -21 -99 l 1
 188 81 281 430 281 694 c 0
EndSplineSet
EndChar

StartChar: percent
Encoding: 6 37 271
Width: 1671
VWidth: 0
Flags: HW
LayerCount: 2
Fore
SplineSet
425 37 m 1
 1107 1497 l 1
 1236 1430 l 1
 555 -22 l 1
 425 37 l 1
59 1071 m 0
 59 1288 129 1495 380 1495 c 0
 631 1495 701 1288 701 1071 c 0
 701 870 607 678 380 678 c 0
 154 678 59 871 59 1071 c 0
192 1092 m 0
 192 962 214 788 380 788 c 0
 546 788 568 962 568 1092 c 0
 568 1219 542 1391 380 1391 c 0
 218 1391 192 1219 192 1092 c 0
970 372 m 0
 970 589 1040 796 1291 796 c 0
 1542 796 1612 589 1612 372 c 0
 1612 171 1518 -21 1291 -21 c 0
 1065 -21 970 172 970 372 c 0
1103 393 m 0
 1103 263 1125 89 1291 89 c 0
 1457 89 1479 263 1479 393 c 0
 1479 520 1453 692 1291 692 c 0
 1129 692 1103 520 1103 393 c 0
EndSplineSet
EndChar

StartChar: period
Encoding: 15 46 272
Width: 456
VWidth: 0
Flags: HW
LayerCount: 2
Fore
SplineSet
230 213 m 0
 295 213 338 160 338 98 c 0
 338 36 295 -17 230 -17 c 0
 166 -17 118 35 118 98 c 0
 118 160 167 213 230 213 c 0
EndSplineSet
EndChar

StartChar: periodcentered
Encoding: 117 183 273
Width: 329
VWidth: 0
Flags: HW
LayerCount: 2
Fore
SplineSet
173 765 m 0
 238 765 281 712 281 650 c 0
 281 588 238 535 173 535 c 0
 109 535 61 587 61 650 c 0
 61 712 110 765 173 765 c 0
EndSplineSet
EndChar

StartChar: plus
Encoding: 12 43 274
Width: 1005
VWidth: 0
Flags: HW
LayerCount: 2
Fore
SplineSet
886 518 m 1
 572 518 l 1
 572 174 l 1
 431 174 l 1
 431 518 l 1
 118 518 l 1
 118 651 l 1
 431 651 l 1
 431 995 l 1
 572 995 l 1
 572 651 l 1
 886 651 l 1
 886 518 l 1
EndSplineSet
EndChar

StartChar: plusminus
Encoding: 112 177 275
Width: 852
VWidth: 0
Flags: HW
LayerCount: 2
Fore
SplineSet
786 -55 m 1
 85 -55 l 1
 85 88 l 1
 786 88 l 1
 786 -55 l 1
819 518 m 1
 505 518 l 1
 505 174 l 1
 364 174 l 1
 364 518 l 1
 51 518 l 1
 51 651 l 1
 364 651 l 1
 364 995 l 1
 505 995 l 1
 505 651 l 1
 819 651 l 1
 819 518 l 1
EndSplineSet
EndChar

StartChar: q
Encoding: 82 113 276
Width: 1245
VWidth: 0
Flags: HW
LayerCount: 2
Fore
SplineSet
284 584 m 0
 284 385 352 117 592 117 c 0
 706 117 847 184 929 268 c 1
 929 891 l 1
 845 975 696 1047 576 1047 c 0
 330 1047 284 774 284 584 c 0
563 1190 m 0
 712 1190 862 1097 943 975 c 1
 980 1169 l 1
 1119 1169 l 1
 1119 -479 l 1
 929 -502 l 1
 929 153 l 1
 845 46 711 -20 573 -20 c 0
 233 -20 102 288 102 584 c 0
 102 878 221 1190 563 1190 c 0
EndSplineSet
EndChar

StartChar: question
Encoding: 32 63 277
Width: 971
VWidth: 0
Flags: HW
LayerCount: 2
Fore
SplineSet
287 -40 m 0
 227 -40 183 12 183 70 c 0
 183 127 237 169 291 169 c 0
 346 169 392 118 392 64 c 0
 392 7 344 -40 287 -40 c 0
386 675 m 1
 386 292 l 1
 206 292 l 1
 206 777 l 1
 396 841 729 947 729 1197 c 0
 729 1392 581 1418 418 1418 c 0
 315 1418 179 1388 90 1332 c 1
 31 1475 l 1
 144 1540 309 1579 437 1579 c 0
 678 1579 920 1499 920 1216 c 0
 920 896 647 767 386 675 c 1
EndSplineSet
EndChar

StartChar: questiondown
Encoding: 125 191 278
Width: 862
VWidth: 0
Flags: HW
LayerCount: 2
Fore
SplineSet
650 1505 m 0
 710 1505 754 1453 754 1395 c 0
 754 1338 700 1296 646 1296 c 0
 590 1296 545 1346 545 1401 c 0
 545 1458 593 1505 650 1505 c 0
551 790 m 1
 551 1173 l 1
 731 1173 l 1
 731 688 l 1
 541 622 208 518 208 268 c 0
 208 71 354 47 519 47 c 0
 622 47 758 77 847 133 c 1
 906 -10 l 1
 796 -77 626 -114 500 -114 c 0
 259 -114 17 -34 17 249 c 0
 17 573 289 697 551 790 c 1
EndSplineSet
EndChar

StartChar: quotedbl
Encoding: 3 34 279
Width: 796
VWidth: 0
Flags: HW
LayerCount: 2
Fore
SplineSet
115 1508 m 2
 112 1529 115 1557 115 1579 c 1
 343 1579 l 1
 343 1557 346 1529 343 1508 c 2
 283 1058 l 1
 175 1058 l 1
 115 1508 l 2
453 1508 m 2
 450 1529 453 1557 453 1579 c 1
 681 1579 l 1
 681 1557 684 1529 681 1508 c 2
 621 1058 l 1
 513 1058 l 1
 453 1508 l 2
EndSplineSet
EndChar

StartChar: quotedblbase
Encoding: 364 8222 280
Width: 891
VWidth: 0
Flags: HW
LayerCount: 2
Fore
SplineSet
490 -19 m 1
 490 274 l 1
 771 274 l 1
 771 25 l 2
 771 -129 688 -230 542 -272 c 1
 491 -178 l 1
 576 -149 622 -114 621 -19 c 1
 490 -19 l 1
121 -19 m 1
 121 274 l 1
 402 274 l 1
 402 25 l 2
 402 -129 319 -230 173 -272 c 1
 122 -178 l 1
 207 -149 253 -114 252 -19 c 1
 121 -19 l 1
EndSplineSet
EndChar

StartChar: quotedblleft
Encoding: 362 8220 281
Width: 891
VWidth: 0
Flags: HW
LayerCount: 2
Fore
SplineSet
771 1356 m 1
 771 1063 l 1
 490 1063 l 1
 490 1312 l 2
 490 1466 573 1567 719 1609 c 1
 770 1515 l 1
 684 1486 639 1452 640 1356 c 1
 771 1356 l 1
402 1356 m 1
 402 1063 l 1
 121 1063 l 1
 121 1312 l 2
 121 1466 204 1567 350 1609 c 1
 401 1515 l 1
 315 1486 270 1452 271 1356 c 1
 402 1356 l 1
EndSplineSet
EndChar

StartChar: quotedblright
Encoding: 363 8221 282
Width: 891
VWidth: 0
Flags: HW
LayerCount: 2
Fore
SplineSet
490 1286 m 1
 490 1579 l 1
 771 1579 l 1
 771 1330 l 2
 771 1176 688 1075 542 1033 c 1
 491 1127 l 1
 576 1156 622 1191 621 1286 c 1
 490 1286 l 1
121 1286 m 1
 121 1579 l 1
 402 1579 l 1
 402 1330 l 2
 402 1176 319 1075 173 1033 c 1
 122 1127 l 1
 207 1156 253 1191 252 1286 c 1
 121 1286 l 1
EndSplineSet
EndChar

StartChar: quoteleft
Encoding: 359 8216 283
Width: 522
VWidth: 0
Flags: HW
LayerCount: 2
Fore
SplineSet
402 1326 m 1
 402 1033 l 1
 121 1033 l 1
 121 1282 l 2
 121 1436 204 1537 350 1579 c 1
 401 1485 l 1
 316 1456 270 1421 271 1326 c 1
 402 1326 l 1
EndSplineSet
EndChar

StartChar: quoteright
Encoding: 360 8217 284
Width: 522
VWidth: 0
Flags: HW
LayerCount: 2
Fore
SplineSet
121 1286 m 1
 121 1579 l 1
 402 1579 l 1
 402 1330 l 2
 402 1176 319 1075 173 1033 c 1
 122 1127 l 1
 207 1156 253 1191 252 1286 c 1
 121 1286 l 1
EndSplineSet
EndChar

StartChar: quotesinglbase
Encoding: 361 8218 285
Width: 522
VWidth: 0
Flags: HW
LayerCount: 2
Fore
SplineSet
121 0 m 1
 121 293 l 1
 402 293 l 1
 402 44 l 2
 402 -110 319 -211 173 -253 c 1
 122 -159 l 1
 207 -130 253 -95 252 0 c 1
 121 0 l 1
EndSplineSet
EndChar

StartChar: quotesingle
Encoding: 8 39 286
Width: 353
VWidth: 0
Flags: HW
LayerCount: 2
Fore
SplineSet
61 1508 m 2
 58 1529 61 1557 61 1579 c 1
 289 1579 l 1
 289 1557 292 1529 289 1508 c 2
 229 1058 l 1
 121 1058 l 1
 61 1508 l 2
EndSplineSet
EndChar

StartChar: r
Encoding: 83 114 287
Width: 771
VWidth: 0
Flags: HW
LayerCount: 2
Fore
SplineSet
621 1190 m 0
 655 1190 689 1187 721 1178 c 1
 721 1026 l 1
 701 1030 679 1030 659 1030 c 0
 558 1030 391 966 316 894 c 1
 316 0 l 1
 126 0 l 1
 126 1169 l 1
 269 1169 l 1
 299 977 l 1
 375 1076 486 1190 621 1190 c 0
EndSplineSet
EndChar

StartChar: registered
Encoding: 109 174 291
Width: 1233
VWidth: 0
Flags: HW
LayerCount: 2
Fore
SplineSet
616 641 m 0
 880 641 1099 837 1099 1106 c 0
 1099 1376 881 1572 616 1572 c 0
 350 1572 136 1375 136 1105 c 0
 136 834 350 641 616 641 c 0
617 542 m 0
 297 542 28 781 28 1108 c 0
 28 1433 300 1674 617 1674 c 0
 935 1674 1207 1434 1207 1108 c 0
 1207 781 936 542 617 542 c 0
846 1261 m 0
 846 1146 784 1111 680 1086 c 1
 860 836 l 1
 826 823 792 802 760 785 c 1
 586 1068 l 1
 543 1068 l 1
 543 807 l 1
 437 807 l 1
 437 1408 l 1
 557 1408 l 2
 649 1408 846 1394 846 1261 c 0
594 1150 m 2
 671 1150 742 1164 742 1256 c 0
 742 1334 596 1326 546 1326 c 1
 546 1150 l 1
 594 1150 l 2
EndSplineSet
EndChar

StartChar: ring
Encoding: 349 730 292
Width: 565
VWidth: 0
Flags: HW
LayerCount: 2
Fore
SplineSet
287 1139 m 0
 424 1139 523 1035 523 899 c 0
 523 762 425 660 287 660 c 0
 149 660 43 759 43 899 c 0
 43 1039 148 1139 287 1139 c 0
285 1048 m 0
 202 1048 140 980 140 899 c 0
 140 819 204 750 285 750 c 0
 369 750 426 817 426 899 c 0
 426 981 369 1048 285 1048 c 0
EndSplineSet
EndChar

StartChar: s
Encoding: 84 115 293
Width: 1007
VWidth: 0
Flags: HW
LayerCount: 2
Fore
SplineSet
167 237 m 1
 260 174 390 125 499 125 c 0
 611 125 753 152 753 310 c 0
 753 454 619 493 463 543 c 0
 271 605 93 672 93 877 c 2
 93 891 l 1
 101 1102 296 1190 490 1190 c 0
 624 1190 791 1147 872 1079 c 1
 814 947 l 1
 724 1012 615 1042 501 1042 c 0
 392 1042 258 1020 257 885 c 1
 257 884 l 2
 257 785 386 742 535 696 c 0
 737 634 925 556 925 322 c 2
 925 309 l 1
 918 64 712 -20 487 -20 c 0
 378 -20 195 31 110 99 c 1
 167 237 l 1
EndSplineSet
EndChar

StartChar: section
Encoding: 102 167 299
Width: 924
VWidth: 0
Flags: HW
LayerCount: 2
Fore
SplineSet
468 600 m 0
 568 600 707 624 707 751 c 0
 707 889 576 906 468 906 c 0
 361 906 233 886 233 753 c 0
 233 623 364 600 468 600 c 0
89 20 m 1
 150 158 l 1
 223 93 344 50 441 50 c 0
 555 50 700 82 700 223 c 0
 700 513 79 349 79 771 c 0
 79 913 210 980 334 995 c 1
 187 1051 79 1115 79 1285 c 0
 79 1487 283 1569 456 1569 c 0
 552 1569 745 1516 818 1452 c 1
 760 1316 l 1
 676 1381 573 1424 466 1424 c 0
 365 1424 235 1402 235 1275 c 0
 235 1062 867 1151 867 746 c 0
 867 610 741 531 618 522 c 1
 769 470 869 386 869 219 c 0
 869 -16 654 -96 453 -96 c 0
 352 -96 168 -45 89 20 c 1
EndSplineSet
EndChar

StartChar: semicolon
Encoding: 28 59 300
Width: 535
VWidth: 0
Flags: HW
LayerCount: 2
Fore
SplineSet
127 0 m 1
 127 293 l 1
 408 293 l 1
 408 44 l 2
 408 -110 325 -211 179 -253 c 1
 128 -159 l 1
 213 -130 259 -95 258 0 c 1
 127 0 l 1
128 864 m 1
 408 864 l 1
 408 583 l 1
 128 583 l 1
 128 864 l 1
EndSplineSet
EndChar

StartChar: seven
Encoding: 24 55 301
Width: 1114
VWidth: 0
Flags: HW
LayerCount: 2
Fore
SplineSet
952 1229 m 1
 1009 1107 l 1
 437 -176 l 1
 269 -100 l 1
 794 1074 l 1
 116 1074 l 1
 116 1229 l 1
 952 1229 l 1
EndSplineSet
EndChar

StartChar: six
Encoding: 23 54 302
Width: 1235
VWidth: 0
Flags: HW
LayerCount: 2
Fore
SplineSet
116 425 m 0
 116 878 393 1216 831 1319 c 1
 874 1174 l 1
 604 1117 366 931 314 649 c 1
 400 752 524 793 655 793 c 0
 930 793 1121 612 1121 335 c 0
 1121 38 916 -156 621 -156 c 0
 268 -156 116 99 116 425 c 0
945 335 m 0
 945 516 846 657 655 657 c 0
 555 657 369 600 300 523 c 1
 294 483 294 442 294 401 c 0
 294 184 371 -14 621 -14 c 0
 828 -14 945 138 945 335 c 0
EndSplineSet
EndChar

StartChar: slash
Encoding: 16 47 303
Width: 727
VWidth: 0
Flags: HW
LayerCount: 2
Fore
SplineSet
-33 -117 m 1
 592 1731 l 1
 761 1669 l 1
 137 -179 l 1
 -33 -117 l 1
EndSplineSet
EndChar

StartChar: sterling
Encoding: 98 163 305
Width: 1009
VWidth: 0
Flags: HW
LayerCount: 2
Fore
SplineSet
116 126 m 1
 215 236 258 463 258 603 c 1
 61 603 l 1
 61 706 l 1
 233 706 l 1
 167 757 118 875 118 956 c 0
 118 1167 305 1322 509 1322 c 0
 644 1322 830 1294 948 1219 c 1
 898 1088 l 1
 793 1139 687 1180 568 1180 c 0
 417 1180 300 1126 300 959 c 0
 300 862 351 775 416 706 c 1
 844 706 l 1
 844 603 l 1
 416 603 l 1
 416 464 383 249 297 132 c 1
 913 132 l 1
 913 0 l 1
 116 0 l 1
 116 126 l 1
EndSplineSet
EndChar

StartChar: t
Encoding: 85 116 306
Width: 803
VWidth: 0
Flags: HW
LayerCount: 2
Fore
SplineSet
745 40 m 1
 671 5 590 -14 508 -14 c 0
 319 -14 209 116 209 300 c 2
 209 1065 l 1
 26 1065 l 1
 26 1169 l 1
 213 1169 l 1
 237 1530 l 1
 399 1576 l 1
 399 1169 l 1
 732 1169 l 1
 732 1065 l 1
 399 1065 l 1
 399 298 l 2
 399 206 442 125 540 125 c 0
 598 125 657 144 709 169 c 1
 745 40 l 1
EndSplineSet
EndChar

StartChar: thorn
Encoding: 188 254 309
Width: 1193
VWidth: 0
Flags: HW
LayerCount: 2
Fore
SplineSet
955 543 m 0
 955 735 924 1047 668 1047 c 0
 545 1047 418 976 332 890 c 1
 316 244 l 1
 408 165 557 123 676 123 c 0
 893 123 955 366 955 543 c 0
1137 584 m 0
 1137 291 1005 -20 668 -20 c 0
 537 -20 395 10 309 117 c 1
 309 -465 l 1
 123 -487 l 1
 123 1565 l 1
 307 1565 l 1
 307 1004 l 1
 393 1113 527 1190 668 1190 c 0
 1009 1190 1137 880 1137 584 c 0
EndSplineSet
EndChar

StartChar: three
Encoding: 20 51 310
Width: 988
VWidth: 0
Flags: HW
LayerCount: 2
Fore
SplineSet
724 843 m 0
 724 1022 590 1063 435 1063 c 0
 331 1063 231 1037 138 992 c 1
 88 1125 l 1
 193 1172 327 1206 441 1206 c 0
 659 1206 889 1121 889 866 c 0
 889 704 772 546 600 545 c 1
 798 504 928 377 928 166 c 0
 928 -88 681 -198 460 -198 c 0
 320 -198 180 -163 55 -102 c 1
 109 31 l 1
 210 -23 350 -59 464 -59 c 0
 628 -59 748 9 748 186 c 0
 748 384 584 452 412 471 c 1
 412 614 l 1
 562 614 724 664 724 843 c 0
EndSplineSet
EndChar

StartChar: threequarters
Encoding: 124 190 311
Width: 1758
VWidth: 0
Flags: HW
LayerCount: 2
Fore
SplineSet
1101 144 m 1
 1489 144 l 1
 1489 703 l 1
 1373 510 1235 325 1101 144 c 1
337 -30 m 1
 1367 1365 l 1
 1498 1272 l 1
 457 -123 l 1
 337 -30 l 1
521 1383 m 0
 521 1511 404 1541 297 1541 c 0
 217 1541 135 1520 63 1484 c 1
 16 1611 l 1
 99 1652 210 1677 302 1677 c 0
 479 1677 675 1601 675 1394 c 0
 675 1263 564 1143 430 1142 c 1
 589 1111 706 1006 706 835 c 0
 706 628 495 540 317 540 c 0
 203 540 90 566 -11 618 c 1
 40 745 l 1
 127 701 222 672 320 672 c 0
 428 672 540 733 540 853 c 0
 540 1005 409 1057 278 1072 c 1
 278 1207 l 1
 385 1207 521 1255 521 1383 c 0
1506 946 m 1
 1634 915 l 1
 1634 145 l 1
 1785 145 l 1
 1785 34 l 1
 1634 34 l 1
 1634 -227 l 1
 1489 -250 l 1
 1489 34 l 1
 964 34 l 1
 942 144 l 1
 1506 946 l 1
EndSplineSet
EndChar

StartChar: tilde
Encoding: 351 732 312
Width: 972
VWidth: 0
Flags: HW
LayerCount: 2
Fore
SplineSet
675 390 m 0
 529 390 397 509 322 509 c 0
 264 509 263 436 263 394 c 1
 107 394 l 1
 107 531 151 654 308 654 c 0
 453 654 550 529 652 529 c 0
 706 529 711 601 711 640 c 1
 867 640 l 1
 867 521 812 390 675 390 c 0
EndSplineSet
EndChar

StartChar: trademark
Encoding: 374 8482 313
Width: 1710
VWidth: 0
Flags: HW
LayerCount: 2
Fore
SplineSet
1181 758 m 1
 1365 1413 l 1
 1594 1413 l 1
 1594 624 l 1
 1467 624 l 1
 1467 1288 l 1
 1270 624 l 1
 1092 624 l 1
 896 1288 l 1
 896 624 l 1
 768 624 l 1
 768 1413 l 1
 997 1413 l 1
 1181 758 l 1
658 1310 m 1
 449 1310 l 1
 449 624 l 1
 314 624 l 1
 314 1310 l 1
 104 1310 l 1
 104 1413 l 1
 658 1413 l 1
 658 1310 l 1
EndSplineSet
EndChar

StartChar: two
Encoding: 19 50 314
Width: 1054
VWidth: 0
Flags: HW
LayerCount: 2
Fore
SplineSet
337 152 m 1
 933 152 l 1
 933 0 l 1
 118 0 l 1
 118 146 l 1
 526 480 l 2
 644 577 771 682 771 846 c 0
 771 1007 635 1059 495 1059 c 0
 408 1059 308 1030 230 992 c 1
 177 1108 l 1
 277 1178 396 1198 517 1198 c 0
 751 1198 933 1098 933 845 c 0
 933 548 533 310 337 152 c 1
EndSplineSet
EndChar

StartChar: u
Encoding: 86 117 315
Width: 1211
VWidth: 0
Flags: HW
LayerCount: 2
Fore
SplineSet
895 274 m 1
 895 1169 l 1
 1085 1169 l 1
 1085 0 l 1
 944 0 l 1
 917 171 l 1
 845 86 709 -18 528 -20 c 1
 521 -20 l 2
 231 -20 119 165 119 442 c 2
 119 1169 l 1
 309 1169 l 1
 309 442 l 2
 309 276 347 117 541 117 c 0
 676 117 798 179 895 274 c 1
EndSplineSet
EndChar

StartChar: underscore
Encoding: 64 95 323
Width: 1187
VWidth: 0
Flags: HW
LayerCount: 2
Fore
SplineSet
1063 -111 m 1
 123 -111 l 1
 123 33 l 1
 1063 33 l 1
 1063 -111 l 1
EndSplineSet
EndChar

StartChar: uni00AD
Encoding: 108 173 326
Width: 591
VWidth: 0
Flags: HW
LayerCount: 2
Fore
SplineSet
536 508 m 1
 68 508 l 1
 68 639 l 1
 536 639 l 1
 536 508 l 1
EndSplineSet
EndChar

StartChar: uni00B2
Encoding: 113 178 327
Width: 777
VWidth: 0
Flags: HW
LayerCount: 2
Fore
SplineSet
283 820 m 1
 689 820 l 1
 689 668 l 1
 51 668 l 1
 51 805 l 1
 151 894 545 1177 545 1354 c 0
 545 1460 446 1495 356 1495 c 0
 260 1495 160 1468 68 1443 c 1
 68 1588 l 1
 165 1625 271 1638 374 1638 c 0
 549 1638 717 1551 717 1357 c 0
 717 1129 434 948 283 820 c 1
EndSplineSet
EndChar

StartChar: uni00B3
Encoding: 114 179 328
Width: 797
VWidth: 0
Flags: HW
LayerCount: 2
Fore
SplineSet
559 1383 m 0
 559 1511 442 1541 335 1541 c 0
 255 1541 173 1520 101 1484 c 1
 54 1611 l 1
 137 1652 248 1677 340 1677 c 0
 517 1677 713 1601 713 1394 c 0
 713 1263 602 1143 468 1142 c 1
 627 1111 744 1006 744 835 c 0
 744 628 533 540 355 540 c 0
 257 540 110 564 27 618 c 1
 78 745 l 1
 165 701 260 672 358 672 c 0
 466 672 578 733 578 853 c 0
 578 1005 447 1057 316 1072 c 1
 316 1207 l 1
 423 1207 559 1255 559 1383 c 0
EndSplineSet
EndChar

StartChar: uni00B9
Encoding: 119 185 329
Width: 454
VWidth: 0
Flags: HW
LayerCount: 2
Fore
SplineSet
179 478 m 1
 179 1304 l 1
 8 1232 l 1
 -29 1345 l 1
 208 1440 l 1
 348 1414 l 1
 348 478 l 1
 179 478 l 1
EndSplineSet
EndChar

StartChar: uni0237
Encoding: 344 567 370
Width: 606
VWidth: 0
Flags: HW
LayerCount: 2
Fore
SplineSet
93 -258 m 1
 267 -147 281 -14 281 176 c 2
 281 1169 l 1
 471 1169 l 1
 471 154 l 2
 471 -68 378 -315 140 -373 c 1
 93 -258 l 1
EndSplineSet
EndChar

StartChar: uni0307
Encoding: 353 775 371
Width: 456
VWidth: 0
Flags: HW
LayerCount: 2
Fore
SplineSet
230 213 m 0
 295 213 338 160 338 98 c 0
 338 36 295 -17 230 -17 c 0
 166 -17 118 35 118 98 c 0
 118 160 167 213 230 213 c 0
EndSplineSet
EndChar

StartChar: uni030F
Encoding: 354 783 372
Width: 430
VWidth: 0
Flags: HW
LayerCount: 2
Fore
SplineSet
707 328 m 1
 373 874 l 1
 605 965 l 1
 764 354 l 1
 707 328 l 1
373 328 m 1
 39 874 l 1
 271 965 l 1
 430 354 l 1
 373 328 l 1
EndSplineSet
EndChar

StartChar: uni0311
Encoding: 355 785 373
Width: 565
VWidth: 0
Flags: HW
LayerCount: 2
Fore
SplineSet
426 899 m 1
 426 981 369 1048 285 1048 c 0
 202 1048 140 980 140 899 c 1
 43 899 l 1
 43 1039 148 1139 287 1139 c 0
 424 1139 523 1035 523 899 c 1
 426 899 l 1
EndSplineSet
EndChar

StartChar: uni0326
Encoding: 356 806 374
Width: 522
VWidth: 0
Flags: HW
LayerCount: 2
Fore
SplineSet
121 -406 m 1
 121 -113 l 1
 402 -113 l 1
 402 -362 l 2
 402 -516 319 -617 173 -659 c 1
 122 -565 l 1
 207 -536 253 -501 252 -406 c 1
 121 -406 l 1
EndSplineSet
EndChar

StartChar: uni203E
Encoding: 394 8254 375
Width: 929
VWidth: 0
Flags: HW
LayerCount: 2
Fore
SplineSet
805 122 m 1
 123 122 l 1
 123 239 l 1
 805 239 l 1
 805 122 l 1
EndSplineSet
EndChar

StartChar: uni2074
Encoding: 372 8308 376
Width: 1109
VWidth: 0
Flags: HW
LayerCount: 2
Fore
SplineSet
293 836 m 1
 681 836 l 1
 681 1396 l 1
 554 1208 425 1021 293 836 c 1
698 1638 m 1
 826 1608 l 1
 826 838 l 1
 977 838 l 1
 977 726 l 1
 826 726 l 1
 826 466 l 1
 681 442 l 1
 681 726 l 1
 156 726 l 1
 134 836 l 1
 698 1638 l 1
EndSplineSet
EndChar

StartChar: uni2206
Encoding: 375 8710 377
Width: 1190
VWidth: 0
Flags: HW
LayerCount: 2
Fore
SplineSet
595 1326 m 1
 1071 143 l 1
 119 143 l 1
 595 1326 l 1
595 1036 m 1
 305 253 l 1
 885 253 l 1
 595 1036 l 1
EndSplineSet
EndChar

StartChar: uniFB01
Encoding: 382 64257 378
Width: 1251
VWidth: 0
Flags: HW
LayerCount: 2
Fore
SplineSet
1099 0 m 1
 917 0 l 1
 917 1064 l 1
 418 1064 l 1
 418 0 l 1
 228 0 l 1
 228 1064 l 1
 33 1064 l 1
 33 1169 l 1
 228 1169 l 1
 228 1421 255 1659 559 1659 c 0
 640 1659 736 1615 801 1567 c 1
 738 1442 l 1
 696 1480 642 1516 583 1516 c 0
 368 1516 418 1332 418 1169 c 1
 1099 1169 l 1
 1099 0 l 1
1012 1577 m 0
 1077 1577 1120 1524 1120 1462 c 0
 1120 1400 1077 1347 1012 1347 c 0
 948 1347 900 1399 900 1462 c 0
 900 1524 949 1577 1012 1577 c 0
EndSplineSet
LCarets2: 1 0 
Ligature2: "'liga' Standard Ligatures lookup 0-1" f i
EndChar

StartChar: uniFB02
Encoding: 383 64258 379
Width: 1255
VWidth: 0
Flags: HW
LayerCount: 2
Fore
SplineSet
418 1169 m 1
 766 1169 l 1
 766 1064 l 1
 418 1064 l 1
 418 0 l 1
 228 0 l 1
 228 1064 l 1
 33 1064 l 1
 33 1169 l 1
 228 1169 l 1
 228 1553 411 1657 696 1657 c 0
 817 1657 957 1638 1109 1614 c 1
 1109 0 l 1
 919 0 l 1
 919 1501 l 1
 831 1508 757 1514 696 1514 c 0
 482 1514 418 1448 418 1169 c 1
EndSplineSet
LCarets2: 1 0 
Ligature2: "'liga' Standard Ligatures lookup 0-1" f l
EndChar

StartChar: v
Encoding: 87 118 383
Width: 1094
VWidth: 0
Flags: HW
LayerCount: 2
Fore
SplineSet
639 0 m 1
 453 0 l 1
 25 1169 l 1
 213 1169 l 1
 549 199 l 1
 879 1169 l 1
 1069 1169 l 1
 639 0 l 1
EndSplineSet
EndChar

StartChar: w
Encoding: 88 119 384
Width: 1635
VWidth: 0
Flags: HW
LayerCount: 2
Fore
SplineSet
822 983 m 1
 571 0 l 1
 365 0 l 1
 36 1169 l 1
 220 1169 l 1
 470 195 l 1
 721 1169 l 1
 923 1169 l 1
 1186 193 l 1
 1420 1169 l 1
 1599 1169 l 1
 1279 0 l 1
 1073 0 l 1
 822 983 l 1
EndSplineSet
EndChar

StartChar: x
Encoding: 89 120 385
Width: 1074
VWidth: 0
Flags: HW
LayerCount: 2
Fore
SplineSet
38 1169 m 1
 234 1169 l 1
 536 712 l 1
 840 1169 l 1
 1036 1169 l 1
 638 584 l 1
 1028 0 l 1
 834 0 l 1
 542 467 l 1
 240 0 l 1
 44 0 l 1
 441 584 l 1
 38 1169 l 1
EndSplineSet
EndChar

StartChar: y
Encoding: 90 121 386
Width: 1094
VWidth: 0
Flags: HW
LayerCount: 2
Fore
SplineSet
577 249 m 1
 878 1169 l 1
 1073 1169 l 1
 636 -37 l 2
 556 -259 479 -459 202 -459 c 1
 151 -334 l 1
 381 -295 429 -186 491 23 c 1
 40 1169 l 1
 222 1169 l 1
 577 249 l 1
EndSplineSet
EndChar

StartChar: yen
Encoding: 100 165 389
Width: 1060
VWidth: 0
Flags: HW
LayerCount: 2
Fore
SplineSet
398 688 m 1
 -85 1579 l 1
 109 1579 l 1
 529 788 l 1
 949 1579 l 1
 1143 1579 l 1
 662 688 l 1
 925 688 l 1
 925 584 l 1
 629 584 l 1
 629 488 l 1
 925 488 l 1
 925 389 l 1
 629 389 l 1
 629 0 l 1
 439 0 l 1
 439 389 l 1
 137 389 l 1
 137 488 l 1
 439 488 l 1
 439 584 l 1
 137 584 l 1
 137 688 l 1
 398 688 l 1
EndSplineSet
EndChar

StartChar: z
Encoding: 91 122 390
Width: 1012
VWidth: 0
Flags: HW
LayerCount: 2
Fore
SplineSet
900 1169 m 1
 900 1004 l 1
 274 145 l 1
 900 145 l 1
 900 0 l 1
 98 0 l 1
 98 166 l 1
 736 1029 l 1
 128 1029 l 1
 128 1169 l 1
 900 1169 l 1
EndSplineSet
EndChar

StartChar: zero
Encoding: 17 48 394
Width: 1374
VWidth: 0
Flags: HW
LayerCount: 2
Fore
SplineSet
1256 590 m 0
 1256 238 1055 -31 685 -31 c 0
 318 -31 118 244 118 590 c 0
 118 945 311 1210 685 1210 c 0
 1057 1210 1256 942 1256 590 c 0
685 1069 m 0
 395 1069 304 846 304 592 c 0
 304 336 399 111 685 111 c 0
 985 111 1070 348 1070 606 c 0
 1070 857 966 1069 685 1069 c 0
EndSplineSet
EndChar

StartChar: fj
Encoding: 395 -1 395
Width: 1229
VWidth: 0
Flags: HW
LayerCount: 2
Fore
SplineSet
418 1169 m 1
 1091 1169 l 5
 1091 154 l 6
 1091 -68 998 -315 760 -373 c 5
 713 -258 l 5
 887 -147 901 -14 901 176 c 6
 901 1064 l 5
 418 1064 l 1
 418 0 l 1
 228 0 l 1
 228 1064 l 1
 33 1064 l 1
 33 1169 l 1
 228 1169 l 1
 228 1492 314 1665 548 1665 c 0
 618 1665 704 1638 809 1578 c 5
 755 1458 l 5
 681 1508 625 1529 583 1529 c 0
 429 1529 418 1402 418 1169 c 1
995 1577 m 4
 1060 1577 1103 1524 1103 1462 c 4
 1103 1400 1060 1347 995 1347 c 4
 931 1347 883 1399 883 1462 c 4
 883 1524 932 1577 995 1577 c 4
EndSplineSet
Ligature2: "'liga' Standard Ligatures lookup 0-1" f j
EndChar
